<svg fill="none" height="2597" viewBox="0 0 900 2597" width="900" xmlns="http://www.w3.org/2000/svg" xmlns:xlink="http://www.w3.org/1999/xlink"><clipPath id="a"><path d="m0 0h1280v2601h-1280z"/></clipPath><g clip-path="url(#a)" opacity=".85"><path d="m0 0h1280v2601h-1280z" fill="#fff"/><path d="m1280 0h-1280v2601h1280z" fill="#678cec"/><g fill="#bbcb50"><path d="m418 440.57 1.7 5.302h5.5l-4.5 3.201 1.7 5.202-4.4-3.201-4.4 3.201 1.7-5.202-4.5-3.201h5.5z"/><path d="m178 2113.91 4.2 13.11h13.8l-11.1 8 4.2 13.11-11.1-8.11-11.1 8.11 4.2-13.11-11.1-8h13.8z"/><path d="m433 1785.29 6.1 18.9h19.9l-16.1 11.71 6.2 18.91-16.1-11.61-16.1 11.61 6.2-18.91-16.1-11.71h19.9z"/><path d="m718 2189.54 6.6 20.31h21.2l-17.2 12.51 6.6 20.2-17.2-12.5-17.2 12.5 6.6-20.2-17.2-12.51h21.2z"/><path d="m99 880.739 5.3 16.306h17.1l-13.8 10.104 5.3 16.307-13.9-10.104-13.9 10.104 5.3-16.307-13.8-10.104h17.1z"/><path d="m794 1709.06 5.3 16.3h17.1l-13.8 10.11 5.3 16.3-13.9-10.1-13.9 10.1 5.3-16.3-13.8-10.11h17.1z"/><path d="m657 1985.86 4 12.41h13.1l-10.6 7.6 4 12.41-10.5-7.71-10.5 7.71 4-12.41-10.6-7.6h13.1z"/><path d="m843 325.325 4.4 13.706h14.5l-11.7 8.403 4.5 13.705-11.7-8.403-11.7 8.403 4.5-13.705-11.7-8.403h14.5z"/><path d="m678 1133.14 2.8 8.5h8.9l-7.2 5.2 2.7 8.5-7.2-5.2-7.2 5.2 2.7-8.5-7.2-5.2h8.9z"/><path d="m649 1787.19 5.5 16.9h17.8l-14.4 10.51 5.5 17.01-14.4-10.51-14.4 10.51 5.5-17.01-14.4-10.51h17.8z"/><path d="m649 850.928 2.1 6.502h6.9l-5.6 4.002 2.1 6.502-5.5-4.001-5.5 4.001 2.1-6.502-5.6-4.002h6.9z"/><path d="m523 1222.77 4.9 15.01h15.7l-12.7 9.3 4.9 15.01-12.8-9.31-12.8 9.31 4.9-15.01-12.7-9.3h15.7z"/><path d="m170 250.196 4 12.405h13.1l-10.6 7.603 4 12.405-10.5-7.703-10.5 7.703 4-12.405-10.6-7.603h13.1z"/><path d="m650 2451.64 6.6 20.31h21.2l-17.2 12.51 6.6 20.2-17.2-12.5-17.2 12.5 6.6-20.2-17.2-12.51h21.2z"/><path d="m347 368.642 5.7 17.607h18.5l-14.9 10.904 5.7 17.607-15-10.905-15 10.905 5.7-17.607-14.9-10.904h18.5z"/><path d="m31 2182.34 5.7 17.61h18.5l-14.9 10.9 5.7 17.61-15-10.91-15 10.91 5.7-17.61-14.90001-10.9h18.50001z"/><path d="m583 1981.56 3 9.11h9.6l-7.8 5.7 3 9.1-7.8-5.7-7.8 5.7 3-9.1-7.8-5.7h9.6z"/><path d="m466 1902.13 1.5 4.6h4.8l-3.9 2.81 1.5 4.5-3.9-2.8-3.9 2.8 1.5-4.5-3.9-2.81h4.8z"/><path d="m799 758.992 2.5 7.803h8.3l-6.7 4.802 2.6 7.903-6.7-4.902-6.7 4.902 2.6-7.903-6.7-4.802h8.3z"/><path d="m305 725.079 3.2 9.804h10.3l-8.4 6.102 3.2 9.804-8.3-6.102-8.3 6.102 3.2-9.804-8.4-6.102h10.3z"/><path d="m298 1341.82 5.1 15.7h16.4l-13.3 9.71 5.1 15.6-13.3-9.6-13.3 9.6 5.1-15.6-13.3-9.71h16.4z"/><path d="m658 253.197 4 12.405h13.1l-10.6 7.603 4 12.405-10.5-7.703-10.5 7.703 4-12.405-10.6-7.603h13.1z"/><path d="m341 1507.78 4.4 13.71h14.5l-11.7 8.4 4.5 13.7-11.7-8.4-11.7 8.4 4.5-13.7-11.7-8.4h14.5z"/><path d="m675 665.956 2.5 7.803h8.3l-6.7 4.802 2.6 7.903-6.7-4.902-6.7 4.902 2.6-7.903-6.7-4.802h8.3z"/><path d="m156 1258.58 4 12.41h13.1l-10.6 7.6 4 12.41-10.5-7.71-10.5 7.71 4-12.41-10.6-7.6h13.1z"/><path d="m273 813.913 6.1 18.908h19.9l-16.1 11.704 6.2 18.907-16.1-11.604-16.1 11.604 6.2-18.907-16.1-11.704h19.9z"/><path d="m606 1190.06 2.3 7.2h7.6l-6.1 4.4 2.3 7.21-6.1-4.41-6.1 4.41 2.3-7.21-6.1-4.4h7.6z"/><path d="m495 2271.07 4.4 13.71h14.5l-11.7 8.4 4.5 13.71-11.7-8.4-11.7 8.4 4.5-13.71-11.7-8.4h14.5z"/><path d="m814 1218.77 1.3 4h4.1l-3.3 2.4 1.2 3.9-3.3-2.4-3.3 2.4 1.2-3.9-3.3-2.4h4.1z"/><path d="m732 22.5087 1.9 5.9022h6.2l-5 3.6014 1.9 5.9023-5-3.7014-5 3.7014 1.9-5.9023-5-3.6014h6.2z"/><path d="m715 1378.93 5.3 16.31h17.1l-13.8 10.1 5.3 16.31-13.9-10.11-13.9 10.11 5.3-16.31-13.8-10.1h17.1z"/><path d="m363 163.663 2.3 7.203h7.6l-6.1 4.401 2.3 7.203-6.1-4.401-6.1 4.401 2.3-7.203-6.1-4.401h7.6z"/><path d="m781 952.067 6.4 19.607h20.5l-16.6 12.005 6.3 19.611-16.6-12.108-16.6 12.108 6.3-19.611-16.6-12.005h20.5z"/><path d="m400 2107.41 6.1 18.91h19.9l-16.1 11.7 6.2 18.91-16.1-11.6-16.1 11.6 6.2-18.91-16.1-11.7h19.9z"/><path d="m500 37.4144 1.7 5.3021h5.5l-4.5 3.2012 1.7 5.202-4.4-3.2012-4.4 3.2012 1.7-5.202-4.5-3.2012h5.5z"/><path d="m628 906.649 4.9 15.006h15.7l-12.7 9.304 4.9 15.005-12.8-9.303-12.8 9.303 4.9-15.005-12.7-9.304h15.7z"/><path d="m483 2363.81 3.4 10.4h11l-8.9 6.51 3.4 10.4-8.9-6.4-8.9 6.4 3.4-10.4-8.9-6.51h11z"/><path d="m846 2142.43 5.9 18.2h19.2l-15.5 11.31 5.9 18.3-15.5-11.3-15.5 11.3 5.9-18.3-15.5-11.31h19.2z"/><path d="m160 1854.51 3 9.11h9.6l-7.8 5.7 3 9.1-7.8-5.7-7.8 5.7 3-9.1-7.8-5.7h9.6z"/><path d="m864 255.798 2.5 7.803h8.3l-6.7 4.802 2.6 7.903-6.7-4.901-6.7 4.901 2.6-7.903-6.7-4.802h8.3z"/><path d="m602 1306.9 5.3 16.31h17.1l-13.8 10.1 5.3 16.31-13.9-10.1-13.9 10.1 5.3-16.31-13.8-10.1h17.1z"/><path d="m441 1299.7 4.4 13.71h14.5l-11.7 8.4 4.5 13.7-11.7-8.4-11.7 8.4 4.5-13.7-11.7-8.4h14.5z"/><path d="m252 2474.25 1.1 3.2h3.4l-2.8 2.1 1.1 3.21-2.8-2-2.8 2 1.1-3.21-2.8-2.1h3.4z"/><path d="m760 2125.22 5.3 16.3h17.1l-13.8 10.11 5.3 16.3-13.9-10.1-13.9 10.1 5.3-16.3-13.8-10.11h17.1z"/><path d="m175 1980.06 4.9 15.01h15.7l-12.7 9.3 4.9 15.01-12.8-9.31-12.8 9.31 4.9-15.01-12.7-9.3h15.7z"/><path d="m892 532.905 6.6 20.308h21.2l-17.2 12.505 6.6 20.208-17.2-12.505-17.2 12.505 6.6-20.208-17.2-12.505h21.2z"/><path d="m10 1603.12 5.5 16.9h17.8l-14.4 10.51 5.5 17-14.4-10.5-14.39999 10.5 5.5-17-14.40001-10.51h17.80001z"/><path d="m421 1133.14 6.4 19.6h20.5l-16.6 12.01 6.3 19.61-16.6-12.11-16.6 12.11 6.3-19.61-16.6-12.01h20.5z"/><path d="m903 1673.34 6.6 20.31h21.2l-17.2 12.51 6.6 20.2-17.2-12.5-17.2 12.5 6.6-20.2-17.2-12.51h21.2z"/><path d="m281 1092.72 4.9 15.01h15.7l-12.7 9.3 4.9 15.01-12.8-9.31-12.8 9.31 4.9-15.01-12.7-9.3h15.7z"/><path d="m535 2086.8 3.8 11.81h12.4l-10 7.2 3.8 11.71-10-7.21-10 7.21 3.8-11.71-10-7.2h12.4z"/><path d="m861 1910.14 1.5 4.6h4.8l-3.9 2.8 1.5 4.5-3.9-2.8-3.9 2.8 1.5-4.5-3.9-2.8h4.8z"/><path d="m69 1739.97 4.9 15.01h15.7l-12.7 9.3 4.9 15.01-12.8-9.31-12.8 9.31 4.9-15.01-12.7-9.3h15.7z"/><path d="m504 198.576 5.5 16.907h17.8l-14.4 10.504 5.5 17.007-14.4-10.504-14.4 10.504 5.5-17.007-14.4-10.504h17.8z"/><path d="m789 881.439 4 12.405h13.1l-10.6 7.603 4 12.405-10.5-7.703-10.5 7.703 4-12.405-10.6-7.603h13.1z"/><path d="m681 126.449 1.5 4.601h4.8l-3.9 2.802 1.5 4.501-3.9-2.801-3.9 2.801 1.5-4.501-3.9-2.802h4.8z"/><path d="m106 210.781 6.4 19.608h20.5l-16.6 12.004 6.3 19.608-16.6-12.105-16.6 12.105 6.3-19.608-16.6-12.004h20.5z"/><path d="m611 42.8165 3 9.1035h9.6l-7.8 5.7022 3 9.1035-7.8-5.7022-7.8 5.7022 3-9.1035-7.8-5.7022h9.6z"/><path d="m175 1151.74 5.1 15.71h16.4l-13.3 9.7 5.1 15.61-13.3-9.6-13.3 9.6 5.1-15.61-13.3-9.7h16.4z"/><path d="m206 2381.22 5.1 15.7h16.4l-13.3 9.71 5.1 15.6-13.3-9.6-13.3 9.6 5.1-15.6-13.3-9.71h16.4z"/><path d="m56 707.673 1.5 4.601h4.8l-3.9 2.801 1.5 4.502-3.9-2.801-3.9 2.801 1.5-4.502-3.9-2.801h4.8z"/><path d="m364 1931.94.8 2.6h2.8l-2.2 1.61.8 2.7-2.2-1.7-2.2 1.7.8-2.7-2.2-1.61h2.8z"/><path d="m35 1202.86 1.5 4.6h4.8l-3.9 2.81 1.5 4.5-3.9-2.8-3.9 2.8 1.5-4.5-3.9-2.81h4.8z"/><path d="m248 2226.06 4.4 13.7h14.5l-11.7 8.41 4.5 13.7-11.7-8.4-11.7 8.4 4.5-13.7-11.7-8.41h14.5z"/><path d="m398 1458.16 2.1 6.5h6.9l-5.6 4.01 2.1 6.5-5.5-4-5.5 4 2.1-6.5-5.6-4.01h6.9z"/><path d="m216 74.8288 3 9.1035h9.6l-7.8 5.7022 3 9.1035-7.8-5.7022-7.8 5.7022 3-9.1035-7.8-5.7022h9.6z"/><path d="m833 478.584 1.7 5.302h5.5l-4.5 3.202 1.7 5.202-4.4-3.202-4.4 3.202 1.7-5.202-4.5-3.202h5.5z"/><path d="m561 908.35 3.8 11.804h12.4l-10 7.203 3.8 11.705-10-7.203-10 7.203 3.8-11.705-10-7.203h12.4z"/><path d="m592 1546.6 3.6 11h11.7l-9.5 6.9 3.6 11.11-9.4-6.91-9.4 6.91 3.6-11.11-9.5-6.9h11.7z"/><path d="m870 2219.35 5.7 17.61h18.5l-14.9 10.91 5.7 17.6-15-10.9-15 10.9 5.7-17.6-14.9-10.91h18.5z"/><path d="m800 1971.06 1.3 4h4.1l-3.3 2.4 1.2 3.9-3.3-2.4-3.3 2.4 1.2-3.9-3.3-2.4h4.1z"/><path d="m153 526.903 2.8 8.503h8.9l-7.2 5.202 2.7 8.503-7.2-5.202-7.2 5.202 2.7-8.503-7.2-5.202h8.9z"/><path d="m825 605.733 1.9 5.902h6.2l-5 3.602 1.9 5.902-5-3.701-5 3.701 1.9-5.902-5-3.602h6.2z"/><path d="m613 1626.33 2.8 8.5h8.9l-7.2 5.2 2.7 8.5-7.2-5.2-7.2 5.2 2.7-8.5-7.2-5.2h8.9z"/><path d="m587 794.506.8 2.601h2.8l-2.2 1.601.8 2.701-2.2-1.701-2.2 1.701.8-2.701-2.2-1.601h2.8z"/><path d="m449 2436.54 5.9 18.21h19.2l-15.5 11.3 5.9 18.31-15.5-11.31-15.5 11.31 5.9-18.31-15.5-11.3h19.2z"/><path d="m443 790.004 2.5 7.803h8.3l-6.7 4.802 2.6 7.903-6.7-4.902-6.7 4.902 2.6-7.903-6.7-4.802h8.3z"/><path d="m252 2151.53 6.4 19.61h20.5l-16.6 12 6.3 19.61-16.6-12.11-16.6 12.11 6.3-19.61-16.6-12h20.5z"/><path d="m89 320.623 5.5 16.907h17.8l-14.4001 10.504 5.5001 17.007-14.4-10.504-14.4 10.504 5.5-17.007-14.4-10.504h17.8z"/><path d="m269 1274.79 1.1 3.2h3.4l-2.8 2.1 1.1 3.2-2.8-2-2.8 2 1.1-3.2-2.8-2.1h3.4z"/><path d="m919 2407.23 5.1 15.7h16.4l-13.3 9.71 5.1 15.6-13.3-9.6-13.3 9.6 5.1-15.6-13.3-9.71h16.4z"/><path d="m314 1201.56 4.2 13.11h13.8l-11.1 8 4.2 13.11-11.1-8.11-11.1 8.11 4.2-13.11-11.1-8h13.8z"/><path d="m699 206.279.8 2.601h2.8l-2.2 1.601.8 2.701-2.2-1.701-2.2 1.701.8-2.701-2.2-1.601h2.8z"/><path d="m814 129.35 1.1 3.201h3.4l-2.8 2.101 1.1 3.201-2.8-2.001-2.8 2.001 1.1-3.201-2.8-2.101h3.4z"/><path d="m391 1743.37 2.8 8.5h8.9l-7.2 5.21 2.7 8.5-7.2-5.2-7.2 5.2 2.7-8.5-7.2-5.21h8.9z"/><path d="m349 932.959 6.1 18.908h19.9l-16.1 11.704 6.2 18.907-16.1-11.604-16.1 11.604 6.2-18.907-16.1-11.704h19.9z"/><path d="m832 1061.91 1.9 5.9h6.2l-5 3.6 1.9 5.9-5-3.7-5 3.7 1.9-5.9-5-3.6h6.2z"/><path d="m440 1528.29 6.4 19.61h20.5l-16.6 12 6.3 19.61-16.6-12.11-16.6 12.11 6.3-19.61-16.6-12h20.5z"/><path d="m490 468.48 1.1 3.202h3.4l-2.8 2.1 1.1 3.202-2.8-2.001-2.8 2.001 1.1-3.202-2.8-2.1h3.4z"/><path d="m217 1558.9 1.1 3.2h3.4l-2.8 2.1 1.1 3.2-2.8-2-2.8 2 1.1-3.2-2.8-2.1h3.4z"/><path d="m209 962.271 3.4 10.404h11l-8.9 6.502 3.4 10.404-8.9-6.402-8.9 6.402 3.4-10.404-8.9-6.502h11z"/><path d="m731 1898.13 1.5 4.6h4.8l-3.9 2.8 1.5 4.51-3.9-2.81-3.9 2.81 1.5-4.51-3.9-2.8h4.8z"/><path d="m297 117.445 5.3 16.306h17.1l-13.8 10.104 5.3 16.307-13.9-10.104-13.9 10.104 5.3-16.307-13.8-10.104h17.1z"/><path d="m185 1760.38 2.5 7.8h8.3l-6.7 4.8 2.6 7.91-6.7-4.91-6.7 4.91 2.6-7.91-6.7-4.8h8.3z"/><path d="m888 1468.77 4.4 13.7h14.5l-11.7 8.4 4.5 13.71-11.7-8.4-11.7 8.4 4.5-13.71-11.7-8.4h14.5z"/><path d="m590 514.198 3.8 11.805h12.4l-10 7.202 3.8 11.705-10-7.203-10 7.203 3.8-11.705-10-7.202h12.4z"/><path d="m70 44.9173 3.4 10.404h11l-8.9 6.5025 3.4 10.404-8.9-6.4025-8.9 6.4025 3.4-10.404-8.9-6.5025h11z"/><path d="m878 1318.91 5.3 16.3h17.1l-13.8 10.11 5.3 16.3-13.9-10.1-13.9 10.1 5.3-16.3-13.8-10.11h17.1z"/><path d="m410 349.435 5.1 15.706h16.4l-13.3 9.703 5.1 15.606-13.3-9.603-13.3 9.603 5.1-15.606-13.3-9.703h16.4z"/><path d="m11 1901.33 2.3 7.2h7.6l-6.1 4.41 2.3 7.2-6.1-4.4-6.09996 4.4 2.3-7.2-6.1-4.41h7.6z"/><path d="m355 607.034 3.2 9.804h10.3l-8.4 6.102 3.2 9.804-8.3-6.103-8.3 6.103 3.2-9.804-8.4-6.102h10.3z"/><path d="m206 841.924 2.1 6.503h6.9l-5.6 4.001 2.1 6.503-5.5-4.002-5.5 4.002 2.1-6.503-5.6-4.001h6.9z"/><path d="m21 2301.49 5.9 18.2h19.2l-15.5 11.31 5.9 18.3-15.5-11.3-15.49998 11.3 5.89998-18.3-15.49998-11.31h19.19998z"/><path d="m821 662.355 4.2 13.105h13.8l-11.1 8.003 4.2 13.105-11.1-8.103-11.1 8.103 4.2-13.105-11.1-8.003h13.8z"/><path d="m668 1733.27 2.1 6.5h6.9l-5.6 4 2.1 6.5-5.5-4-5.5 4 2.1-6.5-5.6-4h6.9z"/><path d="m277 2081.1 1.3 4h4.1l-3.3 2.4 1.2 3.91-3.3-2.41-3.3 2.41 1.2-3.91-3.3-2.4h4.1z"/><path d="m785 1511.98 1.7 5.3h5.5l-4.5 3.21 1.7 5.2-4.4-3.2-4.4 3.2 1.7-5.2-4.5-3.21h5.5z"/><path d="m50 1259.58 4 12.41h13.1l-10.6 7.6 4 12.41-10.5-7.71-10.5 7.71 4-12.41-10.6-7.6h13.1z"/><path d="m17 836.722 1.7 5.302h5.5l-4.5 3.202 1.7 5.202-4.4-3.202-4.4 3.202 1.7-5.202-4.50001-3.202h5.50001z"/><path d="m522 1946.35 2.3 7.2h7.6l-6.1 4.4 2.3 7.21-6.1-4.41-6.1 4.41 2.3-7.21-6.1-4.4h7.6z"/><path d="m520 385.749 5.9 18.207h19.2l-15.5 11.304 5.9 18.307-15.5-11.304-15.5 11.304 5.9-18.307-15.5-11.304h19.2z"/><path d="m11 135.752 2.5 7.803h8.3l-6.7 4.802 2.6 7.903-6.7-4.902-6.69999 4.902 2.6-7.903-6.699998-4.802h8.299998z"/><path d="m87 1517.18 2.1 6.51h6.9l-5.6 4 2.1 6.5-5.5-4-5.5 4 2.1-6.5-5.6-4h6.9z"/><path d="m250 1890.43 2.5 7.8h8.3l-6.7 4.8 2.6 7.91-6.7-4.91-6.7 4.91 2.6-7.91-6.7-4.8h8.3z"/><path d="m83 1631.83 4.4 13.7h14.5l-11.7 8.41 4.5 13.7-11.7-8.4-11.7 8.4 4.5-13.7-11.7-8.41h14.5z"/><path d="m745 1778.18 5.7 17.61h18.5l-14.9 10.91 5.7 17.6-15-10.9-15 10.9 5.7-17.6-14.9-10.91h18.5z"/><path d="m337 2259.57 6.4 19.61h20.5l-16.6 12 6.3 19.61-16.6-12.1-16.6 12.1 6.3-19.61-16.6-12h20.5z"/><path d="m427 582.624 5.3 16.307h17.1l-13.8 10.104 5.3 16.306-13.9-10.104-13.9 10.104 5.3-16.306-13.8-10.104h17.1z"/><path d="m746 2454.14 4.7 14.41h15l-12.2 8.9 4.7 14.31-12.2-8.9-12.2 8.9 4.7-14.31-12.2-8.9h15z"/><path d="m387 525.502 5.1 15.706h16.4l-13.3 9.704 5.1 15.606-13.3-9.604-13.3 9.604 5.1-15.606-13.3-9.704h16.4z"/><path d="m145 427.265 4.2 13.105h13.8l-11.1 8.003 4.2 13.105-11.1-8.103-11.1 8.103 4.2-13.105-11.1-8.003h13.8z"/><path d="m82 2442.24 5.1 15.71h16.4l-13.3 9.7 5.1 15.61-13.3-9.61-13.3 9.61 5.1-15.61-13.3-9.7h16.4z"/><path d="m452 684.063 3 9.104h9.6l-7.8 5.702 3 9.104-7.8-5.703-7.8 5.703 3-9.104-7.8-5.702h9.6z"/><path d="m294 527.203 3.6 11.004h11.7l-9.5 6.903 3.6 11.104-9.4-6.902-9.4 6.902 3.6-11.104-9.5-6.903h11.7z"/><path d="m41 2511.07 4.2 13.1h13.8l-11.1 8.01 4.2 13.1-11.1-8.1-11.1 8.1 4.2-13.1-11.1-8.01h13.8z"/><path d="m835 1.60062 2.3 7.20277h7.6l-6.1 4.40171 2.3 7.2028-6.1-4.4017-6.1 4.4017 2.3-7.2028-6.1-4.40171h7.6z"/><path d="m394 244.594 5.7 17.607h18.5l-14.9 10.904 5.7 17.607-15-10.904-15 10.904 5.7-17.607-14.9-10.904h18.5z"/><path d="m300 1965.76 3.8 11.8h12.4l-10 7.2 3.8 11.71-10-7.2-10 7.2 3.8-11.71-10-7.2h12.4z"/><path d="m530 678.561 1.3 4.002h4.1l-3.3 2.401 1.2 3.901-3.3-2.401-3.3 2.401 1.2-3.901-3.3-2.401h4.1z"/><path d="m95 467.88 6.4 19.608h20.5l-16.6 12.004 6.3 19.608-16.6-12.105-16.6 12.105 6.3-19.608-16.6-12.004h20.5z"/><path d="m280 1571 1.7 5.31h5.5l-4.5 3.2 1.7 5.2-4.4-3.2-4.4 3.2 1.7-5.2-4.5-3.2h5.5z"/><path d="m455 1025.9 5.5 16.9h17.8l-14.4 10.51 5.5 17-14.4-10.5-14.4 10.5 5.5-17-14.4-10.51h17.8z"/><path d="m366 1081.82 1.5 4.6h4.8l-3.9 2.8 1.5 4.5-3.9-2.8-3.9 2.8 1.5-4.5-3.9-2.8h4.8z"/><path d="m410 1657.94 4.9 15h15.7l-12.7 9.31 4.9 15-12.8-9.3-12.8 9.3 4.9-15-12.7-9.31h15.7z"/><path d="m425 2029.38 5.9 18.21h19.2l-15.5 11.3 5.9 18.31-15.5-11.3-15.5 11.3 5.9-18.31-15.5-11.3h19.2z"/><path d="m713 970.774 1.5 4.602h4.8l-3.9 2.801 1.5 4.501-3.9-2.801-3.9 2.801 1.5-4.501-3.9-2.801h4.8z"/><path d="m633 2344.7 3.2 9.81h10.3l-8.4 6.1 3.2 9.8-8.3-6.1-8.3 6.1 3.2-9.8-8.4-6.1h10.3z"/><path d="m495 923.856 5.7 17.606h18.5l-14.9 10.905 5.7 17.606-15-10.904-15 10.904 5.7-17.606-14.9-10.905h18.5z"/><path d="m563 1782.69 3.8 11.8h12.4l-10 7.2 3.8 11.71-10-7.2-10 7.2 3.8-11.71-10-7.2h12.4z"/><path d="m499 741.786 5.7 17.606h18.5l-14.9 10.905 5.7 17.606-15-10.904-15 10.904 5.7-17.606-14.9-10.905h18.5z"/><path d="m16 899.346 3.8 11.805h12.4l-10 7.203 3.8 11.704-10-7.203-10.00001 7.203 3.8-11.704-10.000002-7.203h12.400012z"/><path d="m798 1364.93 5.3 16.3h17.1l-13.8 10.11 5.3 16.3-13.9-10.1-13.9 10.1 5.3-16.3-13.8-10.11h17.1z"/><path d="m125 2292.48 2.3 7.21h7.6l-6.1 4.4 2.3 7.2-6.1-4.4-6.1 4.4 2.3-7.2-6.1-4.4h7.6z"/><path d="m29 1667.94 5.1 15.71h16.4l-13.3 9.7 5.1 15.61-13.3-9.61-13.3 9.61 5.1-15.61-13.3-9.7h16.4z"/><path d="m880 2480.86 3.4 10.4h11l-8.9 6.5 3.4 10.41-8.9-6.41-8.9 6.41 3.4-10.41-8.9-6.5h11z"/><path d="m262 633.744 1.9 5.902h6.2l-5 3.602 1.9 5.902-5-3.701-5 3.701 1.9-5.902-5-3.602h6.2z"/><path d="m507 2507.87 3.4 10.4h11l-8.9 6.5 3.4 10.41-8.9-6.41-8.9 6.41 3.4-10.41-8.9-6.5h11z"/><path d="m718 478.784 2.1 6.503h6.9l-5.6 4.001 2.1 6.503-5.5-4.002-5.5 4.002 2.1-6.503-5.6-4.001h6.9z"/><path d="m809 521.701 5.5 16.906h17.8l-14.4 10.504 5.5 17.007-14.4-10.504-14.4 10.504 5.5-17.007-14.4-10.504h17.8z"/><path d="m649 1511.68 4.2 13.11h13.8l-11.1 8 4.2 13.11-11.1-8.11-11.1 8.11 4.2-13.11-11.1-8h13.8z"/><path d="m500 534.906 6.6 20.308h21.2l-17.2 12.505 6.6 20.207-17.2-12.504-17.2 12.504 6.6-20.207-17.2-12.505h21.2z"/><path d="m246 183.471 1.5 4.601h4.8l-3.9 2.801 1.5 4.502-3.9-2.801-3.9 2.801 1.5-4.502-3.9-2.801h4.8z"/><path d="m1.00002 1439.75.8 2.61h2.8l-2.2 1.6.8 2.7-2.2-1.7-2.2 1.7.800004-2.7-2.200004-1.6h2.800004z"/><path d="m582 272.305 4.4 13.705h14.5l-11.7 8.403 4.5 13.706-11.7-8.404-11.7 8.404 4.5-13.706-11.7-8.403h14.5z"/><path d="m325 285.81 6.6 20.308h21.2l-17.2 12.505 6.6 20.207-17.2-12.504-17.2 12.504 6.6-20.207-17.2-12.505h21.2z"/><path d="m885 177.268 4.7 14.406h15l-12.2 8.903 4.7 14.306-12.2-8.904-12.2 8.904 4.7-14.306-12.2-8.903h15z"/><path d="m824 1264.19 6.4 19.6h20.5l-16.6 12.01 6.3 19.61-16.6-12.11-16.6 12.11 6.3-19.61-16.6-12.01h20.5z"/><path d="m331 228.388 1.1 3.201h3.4l-2.8 2.101 1.1 3.201-2.8-2.001-2.8 2.001 1.1-3.201-2.8-2.101h3.4z"/><path d="m175 367.441 1.3 4.002h4.1l-3.3 2.401 1.2 3.901-3.3-2.401-3.3 2.401 1.2-3.901-3.3-2.401h4.1z"/><path d="m722 2366.41 5.7 17.61h18.5l-14.9 10.9 5.7 17.61-15-10.91-15 10.91 5.7-17.61-14.9-10.9h18.5z"/><path d="m790 1840.71 3.8 11.8h12.4l-10 7.21 3.8 11.7-10-7.2-10 7.2 3.8-11.7-10-7.21h12.4z"/><path d="m315 54.2209.8 2.601h2.8l-2.2 1.6006.8 2.701-2.2-1.7006-2.2 1.7006.8-2.701-2.2-1.6006h2.8z"/><path d="m245 272.405 1.3 4.001h4.1l-3.3 2.401 1.2 3.902-3.3-2.401-3.3 2.401 1.2-3.902-3.3-2.401h4.1z"/><path d="m129 733.783 1.9 5.902h6.2l-5 3.601 1.9 5.902-5-3.701-5 3.701 1.9-5.902-5-3.601h6.2z"/><path d="m135 2056.29 1.9 5.9h6.2l-5 3.61 1.9 5.9-5-3.7-5 3.7 1.9-5.9-5-3.61h6.2z"/><path d="m685 1592.11 1.9 5.91h6.2l-5 3.6 1.9 5.9-5-3.7-5 3.7 1.9-5.9-5-3.6h6.2z"/><path d="m34 437.268 4 12.405h13.1l-10.6 7.603 4 12.405-10.5-7.703-10.5 7.703 4-12.405-10.6-7.603h13.1z"/><path d="m503 1488.27 2.5 7.81h8.3l-6.7 4.8 2.6 7.9-6.7-4.9-6.7 4.9 2.6-7.9-6.7-4.8h8.3z"/><path d="m574 2156.53 6.6 20.31h21.2l-17.2 12.5 6.6 20.21-17.2-12.5-17.2 12.5 6.6-20.21-17.2-12.5h21.2z"/><path d="m396 889.643 5.1 15.706h16.4l-13.3 9.703 5.1 15.606-13.3-9.603-13.3 9.603 5.1-15.606-13.3-9.703h16.4z"/><path d="m315 1638.43 3 9.1h9.6l-7.8 5.71 3 9.1-7.8-5.7-7.8 5.7 3-9.1-7.8-5.71h9.6z"/><path d="m94 2387.22 1.1 3.2h3.4l-2.8 2.1 1.1 3.2-2.8-2-2.8 2 1.1-3.2-2.8-2.1h3.4z"/><path d="m226 729.881 5.9 18.207h19.2l-15.5 11.304 5.9 18.307-15.5-11.304-15.5 11.304 5.9-18.307-15.5-11.304h19.2z"/><path d="m762 418.361 4.7 14.406h15l-12.2 8.903 4.7 14.306-12.2-8.904-12.2 8.904 4.7-14.306-12.2-8.903h15z"/><path d="m280 442.971 3.2 9.803h10.3l-8.4 6.103 3.2 9.803-8.3-6.102-8.3 6.102 3.2-9.803-8.4-6.103h10.3z"/><path d="m587 1690.95 5.1 15.71h16.4l-13.3 9.7 5.1 15.61-13.3-9.61-13.3 9.61 5.1-15.61-13.3-9.7h16.4z"/><path d="m10 2014.88 4 12.4h13.1l-10.6 7.6 4 12.41-10.5-7.7-10.499975 7.7 3.999995-12.41-10.6-7.6h13.1z"/><path d="m816 1639.63 3.6 11.01h11.7l-9.5 6.9 3.6 11.1-9.4-6.9-9.4 6.9 3.6-11.1-9.5-6.9h11.7z"/><path d="m459 2173.94 4.2 13.1h13.8l-11.1 8.01 4.2 13.1-11.1-8.1-11.1 8.1 4.2-13.1-11.1-8.01h13.8z"/><path d="m880 2319.59 2.8 8.51h8.9l-7.2 5.2 2.7 8.5-7.2-5.2-7.2 5.2 2.7-8.5-7.2-5.2h8.9z"/><path d="m693 1196.66 4.7 14.41h15l-12.2 8.9 4.7 14.31-12.2-8.91-12.2 8.91 4.7-14.31-12.2-8.9h15z"/><path d="m504 1310.2 6.6 20.31h21.2l-17.2 12.51 6.6 20.2-17.2-12.5-17.2 12.5 6.6-20.2-17.2-12.51h21.2z"/><path d="m236 2562.19 4.7 14.4h15l-12.2 8.91 4.7 14.3-12.2-8.9-12.2 8.9 4.7-14.3-12.2-8.91h15z"/><path d="m564-25.4098 6.1 18.9073h19.9l-16.1 11.7045 6.2 18.9073-16.1-11.6045-16.1 11.6045 6.2-18.9073-16.1-11.7045h19.9z"/><path d="m509 1619.22 2.3 7.21h7.6l-6.1 4.4 2.3 7.2-6.1-4.4-6.1 4.4 2.3-7.2-6.1-4.4h7.6z"/><path d="m16 232.389 1.3 4.002h4.1l-3.3 2.401 1.2 3.901-3.3-2.4-3.3 2.4 1.2-3.901-3.3-2.401h4.1z"/><path d="m330 2178.54 6.4 19.61h20.5l-16.6 12 6.3 19.61-16.6-12.11-16.6 12.11 6.3-19.61-16.6-12h20.5z"/><path d="m364 747.488 4.7 14.405h15l-12.2 8.904 4.7 14.305-12.2-8.903-12.2 8.903 4.7-14.305-12.2-8.904h15z"/><path d="m865 958.469 4.2 13.105h13.8l-11.1 8.003 4.2 13.105-11.1-8.103-11.1 8.103 4.2-13.105-11.1-8.003h13.8z"/><path d="m400 85.633 5.9 18.207h19.2l-15.5 11.304 5.9 18.307-15.5-11.304-15.5 11.304 5.9-18.307-15.5-11.304h19.2z"/><path d="m435 1954.45 6.6 20.31h21.2l-17.2 12.51 6.6 20.2-17.2-12.5-17.2 12.5 6.6-20.2-17.2-12.51h21.2z"/><path d="m89 989.681 5.1 15.709h16.4l-13.3 9.7 5.1 15.61-13.3-9.61-13.3 9.61 5.1-15.61-13.3-9.7h16.4z"/><path d="m751 1643.13 5.7 17.61h18.5l-14.9 10.9 5.7 17.61-15-10.9-15 10.9 5.7-17.61-14.9-10.9h18.5z"/><path d="m136 652.251 3.8 11.805h12.4l-10 7.202 3.8 11.705-10-7.203-10 7.203 3.8-11.705-10-7.202h12.4z"/><path d="m886 888.542 4.4 13.705h14.5l-11.7 8.404 4.5 13.705-11.7-8.403-11.7 8.403 4.5-13.705-11.7-8.404h14.5z"/><path d="m66 1839.11 1.5 4.6h4.8l-3.9 2.8 1.5 4.5-3.9-2.8-3.9 2.8 1.5-4.5-3.9-2.8h4.8z"/><path d="m273 1775.18 5.5 16.91h17.8l-14.4 10.5 5.5 17.01-14.4-10.5-14.4 10.5 5.5-17.01-14.4-10.5h17.8z"/><path d="m753 638.046 3 9.103h9.6l-7.8 5.702 3 9.104-7.8-5.702-7.8 5.702 3-9.104-7.8-5.702h9.6z"/><path d="m130 93.8361 3 9.1039h9.6l-7.8 5.702 3 9.103-7.8-5.702-7.8 5.702 3-9.103-7.8-5.702h9.6z"/><path d="m728 1022.79 5.3 16.31h17.1l-13.8 10.1 5.3 16.31-13.9-10.1-13.9 10.1 5.3-16.31-13.8-10.1h17.1z"/><path d="m592 1057.51 4 12.4h13.1l-10.6 7.6 4 12.41-10.5-7.7-10.5 7.7 4-12.41-10.6-7.6h13.1z"/><path d="m120 2192.14 4.9 15.01h15.7l-12.7 9.3 4.9 15.01-12.8-9.3-12.8 9.3 4.9-15.01-12.7-9.3h15.7z"/><path d="m151 1436.15 6.1 18.91h19.9l-16.1 11.7 6.2 18.91-16.1-11.6-16.1 11.6 6.2-18.91-16.1-11.7h19.9z"/><path d="m412 2541.68 6.4 19.61h20.5l-16.6 12 6.3 19.61-16.6-12.11-16.6 12.11 6.3-19.61-16.6-12h20.5z"/><path d="m802 2215.95 4.2 13.11h13.8l-11.1 8 4.2 13.11-11.1-8.11-11.1 8.11 4.2-13.11-11.1-8h13.8z"/><path d="m382 1379.53 3.6 11.01h11.7l-9.5 6.9 3.6 11.1-9.4-6.9-9.4 6.9 3.6-11.1-9.5-6.9h11.7z"/><path d="m663 363.64 5.5 16.906h17.8l-14.4 10.505 5.5 17.006-14.4-10.504-14.4 10.504 5.5-17.006-14.4-10.505h17.8z"/><path d="m568 2317.29 5.3 16.31h17.1l-13.8 10.1 5.3 16.31-13.9-10.11-13.9 10.11 5.3-16.31-13.8-10.1h17.1z"/><path d="m530 1385.73 4.4 13.71h14.5l-11.7 8.4 4.5 13.71-11.7-8.41-11.7 8.41 4.5-13.71-11.7-8.4h14.5z"/><path d="m803 1446.06 1.9 5.9h6.2l-5 3.6 1.9 5.9-5-3.7-5 3.7 1.9-5.9-5-3.6h6.2z"/><path d="m206 1094.72 4.9 15.01h15.7l-12.7 9.3 4.9 15.01-12.8-9.31-12.8 9.31 4.9-15.01-12.7-9.3h15.7z"/><path d="m726 802.609 5.1 15.706h16.4l-13.3 9.704 5.1 15.606-13.3-9.604-13.3 9.604 5.1-15.606-13.3-9.704h16.4z"/><path d="m228 1346.82 1.1 3.2h3.4l-2.8 2.1 1.1 3.2-2.8-2-2.8 2 1.1-3.2-2.8-2.1h3.4z"/><path d="m412 2241.06.8 2.6h2.8l-2.2 1.6.8 2.71-2.2-1.71-2.2 1.71.8-2.71-2.2-1.6h2.8z"/><path d="m338 853.128 3.2 9.804h10.3l-8.4 6.103 3.2 9.803-8.3-6.102-8.3 6.102 3.2-9.803-8.4-6.103h10.3z"/><path d="m439 968.273 3.4 10.404h11l-8.9 6.502 3.4 10.404-8.9-6.402-8.9 6.402 3.4-10.404-8.9-6.502h11z"/><path d="m248 340.931 3.2 9.804h10.3l-8.4 6.102 3.2 9.804-8.3-6.102-8.3 6.102 3.2-9.804-8.4-6.102h10.3z"/><path d="m281 1714.76 4 12.41h13.1l-10.6 7.6 4 12.4-10.5-7.7-10.5 7.7 4-12.4-10.6-7.6h13.1z"/><path d="m335 2454.65 6.4 19.6h20.5l-16.6 12.01 6.3 19.6-16.6-12.1-16.6 12.1 6.3-19.6-16.6-12.01h20.5z"/><path d="m651 2063.19 1.5 4.61h4.8l-3.9 2.8 1.5 4.5-3.9-2.8-3.9 2.8 1.5-4.5-3.9-2.8h4.8z"/><path d="m94 821.516.8 2.601h2.8l-2.2 1.601.8 2.701-2.2-1.701-2.2 1.701.8-2.701-2.2-1.601h2.8z"/><path d="m260 1397.84 4.9 15h15.7l-12.7 9.31 4.9 15-12.8-9.3-12.8 9.3 4.9-15-12.7-9.31h15.7z"/><path d="m905 1379.03 5.7 17.61h18.5l-14.9 10.9 5.7 17.61-15-10.91-15 10.91 5.7-17.61-14.9-10.9h18.5z"/><path d="m151 2549.58 6.1 18.91h19.9l-16.1 11.7 6.2 18.91-16.1-11.6-16.1 11.6 6.2-18.91-16.1-11.7h19.9z"/><path d="m840 2421.23 5.1 15.71h16.4l-13.3 9.7 5.1 15.61-13.3-9.61-13.3 9.61 5.1-15.61-13.3-9.7h16.4z"/><path d="m824 1559.9 5.1 15.71h16.4l-13.3 9.7 5.1 15.61-13.3-9.61-13.3 9.61 5.1-15.61-13.3-9.7h16.4z"/><path d="m657 2257.67 3 9.1h9.6l-7.8 5.71 3 9.1-7.8-5.7-7.8 5.7 3-9.1-7.8-5.71h9.6z"/><path d="m724 2001.37 5.9 18.21h19.2l-15.5 11.3 5.9 18.31-15.5-11.31-15.5 11.31 5.9-18.31-15.5-11.3h19.2z"/><path d="m339 1789.89 4.4 13.7h14.5l-11.7 8.41 4.5 13.7-11.7-8.4-11.7 8.4 4.5-13.7-11.7-8.41h14.5z"/><path d="m902 66.3255 1.3 4.0016h4.1l-3.3 2.4009 1.2 3.9015-3.3-2.4009-3.3 2.4009 1.2-3.9015-3.3-2.4009h4.1z"/><path d="m190-11.6045 5.3 16.30631h17.1l-13.8 10.10389 5.3 16.3063-13.9-10.1039-13.9 10.1039 5.3-16.3063-13.8-10.10389h17.1z"/><path d="m883 1160.75 1.3 4h4.1l-3.3 2.4 1.2 3.9-3.3-2.4-3.3 2.4 1.2-3.9-3.3-2.4h4.1z"/><path d="m291 2514.17 4.7 14.4h15l-12.2 8.91 4.7 14.3-12.2-8.9-12.2 8.9 4.7-14.3-12.2-8.91h15z"/><path d="m497 1155.04 2.1 6.51h6.9l-5.6 4 2.1 6.5-5.5-4-5.5 4 2.1-6.5-5.6-4h6.9z"/><path d="m392 1232.37 3.4 10.41h11l-8.9 6.5 3.4 10.41-8.9-6.41-8.9 6.41 3.4-10.41-8.9-6.5h11z"/><path d="m493 304.817 6.4 19.608h20.5l-16.6 12.005 6.3 19.607-16.6-12.105-16.6 12.105 6.3-19.607-16.6-12.005h20.5z"/><path d="m646 2186.54 2.5 7.8h8.3l-6.7 4.81 2.6 7.9-6.7-4.9-6.7 4.9 2.6-7.9-6.7-4.81h8.3z"/><path d="m323 2334.3 5.3 16.3h17.1l-13.8 10.11 5.3 16.31-13.9-10.11-13.9 10.11 5.3-16.31-13.8-10.11h17.1z"/><path d="m501 2021.68 3.4 10.4h11l-8.9 6.5 3.4 10.41-8.9-6.4-8.9 6.4 3.4-10.41-8.9-6.5h11z"/><path d="m42 1355.92 5.3 16.31h17.1l-13.8 10.1 5.3 16.31-13.9-10.11-13.9 10.11 5.3-16.31-13.8-10.1h17.1z"/><path d="m430 3.40131 1.5 4.60177h4.8l-3.9 2.80112 1.5 4.5017-3.9-2.8011-3.9 2.8011 1.5-4.5017-3.9-2.80112h4.8z"/><path d="m166 1671.34 6.6 20.31h21.2l-17.2 12.51 6.6 20.2-17.2-12.5-17.2 12.5 6.6-20.2-17.2-12.51h21.2z"/><path d="m55 549.712 5.5 16.906h17.7999l-14.4 10.504 5.5 17.007-14.3999-10.504-14.4 10.504 5.5-17.007-14.4-10.504h17.8z"/><path d="m822 2588.3 1.3 4h4.1l-3.3 2.4 1.2 3.9-3.3-2.4-3.3 2.4 1.2-3.9-3.3-2.4h4.1z"/><path d="m6.00002 1761.98 4.89998 15h15.7l-12.7 9.31 4.9 15-12.79998-9.3-12.8 9.3 4.90001-15-12.70003-9.31h15.70003z"/><path d="m33 2110.31 5.7 17.61h18.5l-14.9 10.9 5.7 17.61-15-10.9-15 10.9 5.7-17.61-14.90001-10.9h18.50001z"/><path d="m796 222.186 4 12.404h13.1l-10.6 7.603 4 12.405-10.5-7.703-10.5 7.703 4-12.405-10.6-7.603h13.1z"/><path d="m145 1544.79 4.4 13.71h14.5l-11.7 8.4 4.5 13.71-11.7-8.4-11.7 8.4 4.5-13.71-11.7-8.4h14.5z"/><path d="m877 1794.99 1.1 3.2h3.4l-2.8 2.1 1.1 3.2-2.8-2-2.8 2 1.1-3.2-2.8-2.1h3.4z"/><path d="m395 2363.01 4.2 13.11h13.8l-11.1 8 4.2 13.1-11.1-8.1-11.1 8.1 4.2-13.1-11.1-8h13.8z"/><path d="m85 1951.05 1.1 3.2h3.4l-2.8 2.1 1.1 3.2-2.8-2-2.8 2 1.1-3.2-2.8-2.1h3.4z"/><path d="m585 2484.76 3 9.1h9.6l-7.8 5.7 3 9.11-7.8-5.71-7.8 5.71 3-9.11-7.8-5.7h9.6z"/><path d="m749 1296 5.7 17.61h18.5l-14.9 10.9 5.7 17.61-15-10.91-15 10.91 5.7-17.61-14.9-10.9h18.5z"/><path d="m434 2287.58 6.4 19.61h20.5l-16.6 12 6.3 19.61-16.6-12.1-16.6 12.1 6.3-19.61-16.6-12h20.5z"/><path d="m711 2530.97 3.8 11.81h12.4l-10 7.2 3.8 11.71-10-7.21-10 7.21 3.8-11.71-10-7.2h12.4z"/><path d="m26 1067.91 5.5 16.91h17.8l-14.4 10.5 5.5 17.01-14.4-10.51-14.4 10.51 5.5-17.01-14.39999-10.5h17.79999z"/><path d="m615 191.674 2.3 7.203h7.6l-6.1 4.401 2.3 7.203-6.1-4.402-6.1 4.402 2.3-7.203-6.1-4.401h7.6z"/><path d="m174 1032.6 4.7 14.4h15l-12.2 8.91 4.7 14.3-12.2-8.9-12.2 8.9 4.7-14.3-12.2-8.91h15z"/><path d="m733 701.97 2.8 8.504h8.9l-7.2 5.202 2.7 8.503-7.2-5.202-7.2 5.202 2.7-8.503-7.2-5.202h8.9z"/><path d="m864 2004.37 5.9 18.21h19.2l-15.5 11.3 5.9 18.31-15.5-11.3-15.5 11.3 5.9-18.31-15.5-11.3h19.2z"/><path d="m5.00001 1005.39 3.6 11h11.69999l-9.5 6.9 3.6 11.11-9.39999-6.9-9.4 6.9 3.600002-11.11-9.500012-6.9h11.70001z"/><path d="m822 2067.8 3.6 11h11.7l-9.5 6.9 3.6 11.11-9.4-6.91-9.4 6.91 3.6-11.11-9.5-6.9h11.7z"/><path d="m667 736.384 4.2 13.105h13.8l-11.1 8.003 4.2 13.105-11.1-8.103-11.1 8.103 4.2-13.105-11.1-8.003h13.8z"/><path d="m654 1907.33 2.3 7.21h7.6l-6.1 4.4 2.3 7.2-6.1-4.4-6.1 4.4 2.3-7.2-6.1-4.4h7.6z"/><path d="m592 1874.52 3.2 9.81h10.3l-8.4 6.1 3.2 9.8-8.3-6.1-8.3 6.1 3.2-9.8-8.4-6.1h10.3z"/><path d="m892 1253.68 4.4 13.71h14.5l-11.7 8.4 4.5 13.71-11.7-8.41-11.7 8.41 4.5-13.71-11.7-8.4h14.5z"/><path d="m113-8.10312 3.4 10.40401h11l-8.9 6.5025 3.4 10.40401-8.9-6.4025-8.9 6.4025 3.4-10.40401-8.9-6.5025h11z"/><path d="m306 1443.06 5.5 16.9h17.8l-14.4 10.51 5.5 17-14.4-10.5-14.4 10.5 5.5-17-14.4-10.51h17.8z"/><path d="m704 532.505 5.1 15.706h16.4l-13.3 9.704 5.1 15.606-13.3-9.604-13.3 9.604 5.1-15.606-13.3-9.704h16.4z"/><path d="m571 121.647 5.9 18.207h19.2l-15.5 11.304 5.9 18.307-15.5-11.304-15.5 11.304 5.9-18.307-15.5-11.304h19.2z"/><path d="m811 820.316 3.6 11.004h11.7l-9.5 6.903 3.6 11.104-9.4-6.903-9.4 6.903 3.6-11.104-9.5-6.903h11.7z"/><path d="m823 2358.21 5.1 15.7h16.4l-13.3 9.71 5.1 15.6-13.3-9.6-13.3 9.6 5.1-15.6-13.3-9.71h16.4z"/><path d="m358 2038.99.8 2.6h2.8l-2.2 1.6.8 2.7-2.2-1.7-2.2 1.7.8-2.7-2.2-1.6h2.8z"/><path d="m4.00001 352.836 6.59999 20.308h21.2l-17.2 12.504 6.6 20.208-17.19999-12.505-17.20001 12.505 6.60001-20.208-17.20001-12.504h21.20001z"/><path d="m574 2582.29 1.3 4.01h4.1l-3.3 2.4 1.2 3.9-3.3-2.4-3.3 2.4 1.2-3.9-3.3-2.4h4.1z"/><path d="m576 439.569 1.7 5.302h5.5l-4.5 3.201 1.7 5.202-4.4-3.201-4.4 3.201 1.7-5.202-4.5-3.201h5.5z"/><path d="m562 2398.92 3.6 11.01h11.7l-9.5 6.9 3.6 11.1-9.4-6.9-9.4 6.9 3.6-11.1-9.5-6.9h11.7z"/><path d="m496 1671.34 6.4 19.61h20.5l-16.6 12.01 6.3 19.6-16.6-12.1-16.6 12.1 6.3-19.6-16.6-12.01h20.5z"/><path d="m232 1663.14 5.5 16.91h17.8l-14.4 10.5 5.5 17.01-14.4-10.51-14.4 10.51 5.5-17.01-14.4-10.5h17.8z"/><path d="m716 1461.96 1.5 4.6h4.8l-3.9 2.81 1.5 4.5-3.9-2.8-3.9 2.8 1.5-4.5-3.9-2.81h4.8z"/><path d="m760 331.628 5.5 16.906h17.8l-14.4 10.504 5.5 17.007-14.4-10.504-14.4 10.504 5.5-17.007-14.4-10.504h17.8z"/><path d="m755 1104.83 1.7 5.3h5.5l-4.5 3.2 1.7 5.2-4.4-3.2-4.4 3.2 1.7-5.2-4.5-3.2h5.5z"/><path d="m137 1363.12 2.1 6.51h6.9l-5.6 4 2.1 6.5-5.5-4-5.5 4 2.1-6.5-5.6-4h6.9z"/><path d="m463 851.028 6.4 19.607h20.5l-16.6 12.005 6.3 19.607-16.6-12.104-16.6 12.104 6.3-19.607-16.6-12.005h20.5z"/><path d="m123 1786.89 4.4 13.7h14.5l-11.7 8.41 4.5 13.7-11.7-8.4-11.7 8.4 4.5-13.7-11.7-8.41h14.5z"/><path d="m121 1097.22 3.2 9.81h10.3l-8.4 6.1 3.2 9.8-8.3-6.1-8.3 6.1 3.2-9.8-8.4-6.1h10.3z"/><path d="m632 1248.68 4.7 14.41h15l-12.2 8.9 4.7 14.31-12.2-8.91-12.2 8.91 4.7-14.31-12.2-8.9h15z"/><path d="m326 2113.51 6.4 19.61h20.5l-16.6 12.01 6.3 19.6-16.6-12.1-16.6 12.1 6.3-19.6-16.6-12.01h20.5z"/><path d="m93 1165.15 2.5 7.8h8.3l-6.7 4.8 2.6 7.91-6.7-4.91-6.7 4.91 2.6-7.91-6.7-4.8h8.3z"/><path d="m571 1116.03 6.1 18.91h19.9l-16.1 11.7 6.2 18.91-16.1-11.61-16.1 11.61 6.2-18.91-16.1-11.7h19.9z"/><path d="m220 545.31 4.2 13.105h13.8l-11.1 8.003 4.2 13.105-11.1-8.103-11.1 8.103 4.2-13.105-11.1-8.003h13.8z"/><path d="m465 157.661 2.1 6.502h6.9l-5.6 4.002 2.1 6.502-5.5-4.001-5.5 4.001 2.1-6.502-5.6-4.002h6.9z"/><path d="m649 437.769 5.9 18.207h19.2l-15.5 11.304 5.9 18.307-15.5-11.304-15.5 11.304 5.9-18.307-15.5-11.304h19.2z"/><path d="m36 635.745 1.9 5.902h6.2l-5 3.601 1.9 5.903-5-3.702-5 3.702 1.9-5.903-5-3.601h6.2z"/><path d="m277 975.676 1.1 3.201h3.4l-2.8 2.101 1.1 3.201-2.8-2.001-2.8 2.001 1.1-3.201-2.8-2.101h3.4z"/><path d="m147 163.363 5.1 15.706h16.4l-13.3 9.704 5.1 15.606-13.3-9.604-13.3 9.604 5.1-15.606-13.3-9.704h16.4z"/><path d="m609 1432.95 5.3 16.31h17.1l-13.8 10.1 5.3 16.31-13.9-10.11-13.9 10.11 5.3-16.31-13.8-10.1h17.1z"/><path d="m906 800.908 6.1 18.908h19.9l-16.1 11.704 6.2 18.907-16.1-11.604-16.1 11.604 6.2-18.907-16.1-11.704h19.9z"/><path d="m792 2516.27 1.3 4h4.1l-3.3 2.4 1.2 3.9-3.3-2.4-3.3 2.4 1.2-3.9-3.3-2.4h4.1z"/><path d="m844 412.559 1.5 4.602h4.8l-3.9 2.801 1.5 4.501-3.9-2.801-3.9 2.801 1.5-4.501-3.9-2.801h4.8z"/><path d="m560 838.523 4.4 13.705h14.5l-11.7 8.403 4.5 13.706-11.7-8.404-11.7 8.404 4.5-13.706-11.7-8.403h14.5z"/><path d="m146 2478.55 2.1 6.51h6.9l-5.6 4 2.1 6.5-5.5-4-5.5 4 2.1-6.5-5.6-4h6.9z"/><path d="m205 2496.66 6.4 19.61h20.5l-16.6 12 6.3 19.61-16.6-12.1-16.6 12.1 6.3-19.61-16.6-12h20.5z"/><path d="m550 593.529 4.9 15.005h15.7l-12.7 9.304 4.9 15.006-12.8-9.304-12.8 9.304 4.9-15.006-12.7-9.304h15.7z"/><path d="m519 1830 4.9 15.01h15.7l-12.7 9.3 4.9 15.01-12.8-9.3-12.8 9.3 4.9-15.01-12.7-9.3h15.7z"/><path d="m354 1133.74 4.9 15h15.7l-12.7 9.31 4.9 15-12.8-9.3-12.8 9.3 4.9-15-12.7-9.31h15.7z"/><path d="m221 477.884 2.5 7.803h8.3l-6.7 4.802 2.6 7.903-6.7-4.902-6.7 4.902 2.6-7.903-6.7-4.802h8.3z"/><path d="m814 1140.14 2.8 8.5h8.9l-7.2 5.2 2.7 8.51-7.2-5.2-7.2 5.2 2.7-8.51-7.2-5.2h8.9z"/><path d="m212 1214.87 5.3 16.3h17.1l-13.8 10.11 5.3 16.3-13.9-10.1-13.9 10.1 5.3-16.3-13.8-10.11h17.1z"/><path d="m758 2297.68 3 9.11h9.6l-7.8 5.7 3 9.1-7.8-5.7-7.8 5.7 3-9.1-7.8-5.7h9.6z"/><path d="m681 1290.1 6.1 18.9h19.9l-16.1 11.71 6.2 18.91-16.1-11.61-16.1 11.61 6.2-18.91-16.1-11.71h19.9z"/><path d="m159 595.729 1.9 5.903h6.2l-5 3.601 1.9 5.902-5-3.701-5 3.701 1.9-5.902-5-3.601h6.2z"/><path d="m598 660.554 1.3 4.002h4.1l-3.3 2.401 1.2 3.901-3.3-2.401-3.3 2.401 1.2-3.901-3.3-2.401h4.1z"/><path d="m142 948.665 4.9 15.006h15.7l-12.7 9.304 4.9 15.005-12.8-9.303-12.8 9.303 4.9-15.005-12.7-9.304h15.7z"/><path d="m245 2312.49 2.1 6.5h6.9l-5.6 4 2.1 6.51-5.5-4-5.5 4 2.1-6.51-5.6-4h6.9z"/><path d="m3.00002 42.2162.8 2.601h2.8l-2.2 1.6007.8 2.701-2.2-1.7006-2.199996 1.7006.799996-2.701-2.199996-1.6007h2.799996z"/><path d="m336 1288.6 4 12.4h13.1l-10.6 7.6 4 12.41-10.5-7.7-10.5 7.7 4-12.41-10.6-7.6h13.1z"/><path d="m291 1029.4 3.6 11h11.7l-9.5 6.9 3.6 11.11-9.4-6.91-9.4 6.91 3.6-11.11-9.5-6.9h11.7z"/><path d="m500 1773.18 1.9 5.91h6.2l-5 3.6 1.9 5.9-5-3.7-5 3.7 1.9-5.9-5-3.6h6.2z"/><path d="m106 2128.22 1.5 4.6h4.8l-3.9 2.8 1.5 4.5-3.9-2.8-3.9 2.8 1.5-4.5-3.9-2.8h4.8z"/><path d="m191 2193.64 3.2 9.81h10.3l-8.4 6.1 3.2 9.8-8.3-6.1-8.3 6.1 3.2-9.8-8.4-6.1h10.3z"/><path d="m699 307.318 4.7 14.406h15l-12.2 8.903 4.7 14.306-12.2-8.904-12.2 8.904 4.7-14.306-12.2-8.903h15z"/><path d="m3.00002 2432.24 4.9 15h15.69998l-12.7 9.31 4.9 15-12.79998-9.3-12.8 9.3 4.90001-15-12.70003-9.31h15.70003z"/><path d="m274-5.30204 2.5 7.803h8.3l-6.7 4.80185 2.6 7.90309-6.7-4.9019-6.7 4.9019 2.6-7.90309-6.7-4.80185h8.3z"/><path d="m224 2024.98 4.7 14.41h15l-12.2 8.9 4.7 14.3-12.2-8.9-12.2 8.9 4.7-14.3-12.2-8.9h15z"/><path d="m592 346.834 6.6 20.307h21.2l-17.2 12.505 6.6 20.208-17.2-12.505-17.2 12.505 6.6-20.208-17.2-12.505h21.2z"/><path d="m521 1023.99 6.1 18.91h19.9l-16.1 11.71 6.2 18.9-16.1-11.6-16.1 11.6 6.2-18.9-16.1-11.71h19.9z"/><path d="m466 2103.01.8 2.6h2.8l-2.2 1.6.8 2.7-2.2-1.7-2.2 1.7.8-2.7-2.2-1.6h2.8z"/><path d="m451 1375.23 2.8 8.5h8.9l-7.2 5.2 2.7 8.51-7.2-5.2-7.2 5.2 2.7-8.51-7.2-5.2h8.9z"/><path d="m461 1203.66 4.7 14.41h15l-12.2 8.9 4.7 14.31-12.2-8.91-12.2 8.91 4.7-14.31-12.2-8.9h15z"/><path d="m658 588.026 3 9.104h9.6l-7.8 5.702 3 9.104-7.8-5.703-7.8 5.703 3-9.104-7.8-5.702h9.6z"/><path d="m571 2237.46 5.9 18.21h19.2l-15.5 11.3 5.9 18.31-15.5-11.3-15.5 11.3 5.9-18.31-15.5-11.3h19.2z"/><path d="m17 504.994 3 9.104h9.6l-7.8 5.702 3 9.104-7.8-5.703-7.79998 5.703 2.99998-9.104-7.79998-5.702h9.59998z"/><path d="m206 673.859 2.1 6.503h6.9l-5.6 4.001 2.1 6.503-5.5-4.002-5.5 4.002 2.1-6.503-5.6-4.001h6.9z"/><path d="m766 172.366 1.1 3.202h3.4l-2.8 2.1 1.1 3.202-2.8-2.001-2.8 2.001 1.1-3.202-2.8-2.1h3.4z"/><path d="m637 2557.28 1.3 4.01h4.1l-3.3 2.4 1.2 3.9-3.3-2.4-3.3 2.4 1.2-3.9-3.3-2.4h4.1z"/><path d="m160 1628.83.8 2.6h2.8l-2.2 1.6.8 2.7-2.2-1.7-2.2 1.7.8-2.7-2.2-1.6h2.8z"/><path d="m7.99999 752.29 3.80001 11.804h12.4l-10 7.203 3.8 11.704-10.00001-7.202-10 7.202 3.8-11.704-10-7.203h12.4z"/><path d="m190 1924.34 2.1 6.5h6.9l-5.6 4.01 2.1 6.5-5.5-4-5.5 4 2.1-6.5-5.6-4.01h6.9z"/><path d="m235 893.444 4.2 13.105h13.8l-11.1 8.003 4.2 13.105-11.1-8.103-11.1 8.103 4.2-13.105-11.1-8.003h13.8z"/><path d="m230 1469.07 5.7 17.6h18.5l-14.9 10.91 5.7 17.6-15-10.9-15 10.9 5.7-17.6-14.9-10.91h18.5z"/><path d="m897 1073.51 4.2 13.11h13.8l-11.1 8 4.2 13.11-11.1-8.11-11.1 8.11 4.2-13.11-11.1-8h13.8z"/><path d="m10 1484.27 6.6 20.31h21.2l-17.2 12.5 6.6 20.21-17.2-12.5-17.19999 12.5 6.600001-20.21-17.200011-12.5h21.20001z"/><path d="m688 2136.02.8 2.6h2.8l-2.2 1.6.8 2.71-2.2-1.71-2.2 1.71.8-2.71-2.2-1.6h2.8z"/><path d="m314 2592.4 1.5 4.6h4.8l-3.9 2.8 1.5 4.5-3.9-2.8-3.9 2.8 1.5-4.5-3.9-2.8h4.8z"/><path d="m382 1571.71 4.2 13.1h13.8l-11.1 8 4.2 13.11-11.1-8.1-11.1 8.1 4.2-13.11-11.1-8h13.8z"/><path d="m51 2581.79 3.2 9.81h10.3l-8.4 6.1 3.2 9.8-8.3-6.1-8.3 6.1 3.2-9.8-8.4-6.1h10.3z"/><path d="m591 715.275 3.8 11.805h12.4l-10 7.203 3.8 11.704-10-7.203-10 7.203 3.8-11.704-10-7.203h12.4z"/><path d="m753 82.5318 5.5 16.9065h17.8l-14.4 10.5037 5.5 17.007-14.4-10.504-14.4 10.504 5.5-17.007-14.4-10.5037h17.8z"/><path d="m370 681.763 1.9 5.902h6.2l-5 3.601 1.9 5.902-5-3.701-5 3.701 1.9-5.902-5-3.601h6.2z"/><path d="m650 1377.23 6.4 19.61h20.5l-16.6 12 6.3 19.61-16.6-12.1-16.6 12.1 6.3-19.61-16.6-12h20.5z"/><path d="m166 892.944 2.3 7.203h7.6l-6.1 4.401 2.3 7.203-6.1-4.402-6.1 4.402 2.3-7.203-6.1-4.401h7.6z"/><path d="m512 103.64 2.1 6.502h6.9l-5.6 4.002 2.1 6.502-5.5-4.001-5.5 4.001 2.1-6.502-5.6-4.002h6.9z"/><path d="m355 448.473 5.1 15.706h16.4l-13.3 9.703 5.1 15.606-13.3-9.603-13.3 9.603 5.1-15.606-13.3-9.703h16.4z"/><path d="m60 2265.37 1.9 5.9h6.2l-5 3.61 1.9 5.9-5-3.7-5 3.7 1.9-5.9-5-3.61h6.2z"/><path d="m892 1541.69 4 12.41h13.1l-10.6 7.6 4 12.41-10.5-7.71-10.5 7.71 4-12.41-10.6-7.6h13.1z"/><path d="m715 872.736 5.3 16.306h17.1l-13.8 10.104 5.3 16.307-13.9-10.104-13.9 10.104 5.3-16.307-13.8-10.104h17.1z"/><path d="m634 982.879 5.7 17.611h18.5l-14.9 10.9 5.7 17.61-15-10.91-15 10.91 5.7-17.61-14.9-10.9h18.5z"/><path d="m505 2575.29 4.9 15.01h15.7l-12.7 9.3 4.9 15.01-12.8-9.31-12.8 9.31 4.9-15.01-12.7-9.3h15.7z"/><path d="m68 1436.85 4.9 15.01h15.7l-12.7 9.3 4.9 15.01-12.8-9.31-12.8 9.31 4.9-15.01-12.7-9.3h15.7z"/><path d="m890 2108.51 2.5 7.8h8.3l-6.7 4.81 2.6 7.9-6.7-4.9-6.7 4.9 2.6-7.9-6.7-4.81h8.3z"/><path d="m659 1067.61.8 2.6h2.8l-2.2 1.6.8 2.7-2.2-1.7-2.2 1.7.8-2.7-2.2-1.6h2.8z"/><path d="m652-10.304 2.8 8.5033h8.9l-7.2 5.20201 2.7 8.50329-7.2-5.20202-7.2 5.20202 2.7-8.50329-7.2-5.20201h8.9z"/><path d="m286 2393.02 4.2 13.11h13.8l-11.1 8 4.2 13.1-11.1-8.1-11.1 8.1 4.2-13.1-11.1-8h13.8z"/><path d="m555 965.872 5.7 17.607h18.5l-14.9 10.904 5.7 17.607-15-10.9-15 10.9 5.7-17.607-14.9-10.904h18.5z"/><path d="m605 2111.11 1.3 4h4.1l-3.3 2.41 1.2 3.9-3.3-2.4-3.3 2.4 1.2-3.9-3.3-2.41h4.1z"/><path d="m375 1844.21 5.7 17.61h18.5l-14.9 10.9 5.7 17.61-15-10.91-15 10.91 5.7-17.61-14.9-10.9h18.5z"/><path d="m242 1167.15 2.8 8.5h8.9l-7.2 5.2 2.7 8.51-7.2-5.2-7.2 5.2 2.7-8.51-7.2-5.2h8.9z"/><path d="m917 280.708 5.9 18.207h19.2l-15.5 11.304 5.9 18.307-15.5-11.304-15.5 11.304 5.9-18.307-15.5-11.304h19.2z"/><path d="m77 142.655 5.9 18.207h19.2l-15.5 11.304 5.9 18.307-15.5-11.304-15.5 11.304 5.9-18.307-15.5-11.304h19.2z"/><path d="m2.00002 288.911 3 9.104h9.59998l-7.79997 5.702 3 9.103-7.80001-5.702-7.8 5.702 3-9.103-7.80002-5.702h9.600025z"/><path d="m727 1527.89 5.1 15.7h16.4l-13.3 9.71 5.1 15.6-13.3-9.6-13.3 9.6 5.1-15.6-13.3-9.71h16.4z"/><path d="m673 1638.33 6.4 19.61h20.5l-16.6 12 6.3 19.61-16.6-12.1-16.6 12.1 6.3-19.61-16.6-12h20.5z"/><path d="m2.00002 1305.6 4 12.41h13.09998l-10.59998 7.6 3.99998 12.41-10.49998-7.71-10.5 7.71 4-12.41-10.60002-7.6h13.10002z"/><path d="m79 2004.37 5.9 18.21h19.2l-15.5 11.3 5.9 18.31-15.5-11.3-15.5 11.3 5.9-18.31-15.5-11.3h19.2z"/><path d="m825 2284.58 2.8 8.5h8.9l-7.2 5.2 2.7 8.51-7.2-5.2-7.2 5.2 2.7-8.51-7.2-5.2h8.9z"/><path d="m83 395.152 3.6 11.004h11.7l-9.5 6.903 3.6 11.104-9.4-6.902-9.4 6.902 3.6-11.104-9.5-6.903h11.7z"/><path d="m741 255.398 4.9 15.006h15.7l-12.7 9.304 4.9 15.005-12.8-9.303-12.8 9.303 4.9-15.005-12.7-9.304h15.7z"/><path d="m889 2571.39 5.3 16.31h17.1l-13.8 10.1 5.3 16.31-13.9-10.11-13.9 10.11 5.3-16.31-13.8-10.1h17.1z"/><path d="m518 2203.15 4.9 15h15.7l-12.7 9.31 4.9 15-12.8-9.3-12.8 9.3 4.9-15-12.7-9.31h15.7z"/><path d="m893 607.634 5.3 16.306h17.1l-13.8 10.104 5.3 16.306-13.9-10.103-13.9 10.103 5.3-16.306-13.8-10.104h17.1z"/><path d="m858 722.178 3.4 10.404h11l-8.9 6.503 3.4 10.404-8.9-6.403-8.9 6.403 3.4-10.404-8.9-6.503h11z"/><path d="m462 248.596 5.7 17.606h18.5l-14.9 10.905 5.7 17.606-15-10.904-15 10.904 5.7-17.606-14.9-10.905h18.5z"/><path d="m188 2265.47 2.1 6.5h6.9l-5.6 4.01 2.1 6.5-5.5-4-5.5 4 2.1-6.5-5.6-4.01h6.9z"/><path d="m753 1172.05 2.3 7.2h7.6l-6.1 4.41 2.3 7.2-6.1-4.4-6.1 4.4 2.3-7.2-6.1-4.41h7.6z"/><path d="m157 778.8 5.7 17.607h18.5l-14.9 10.904 5.7 17.607-15-10.905-15 10.905 5.7-17.607-14.9-10.904h18.5z"/><path d="m310 1861.12 1.7 5.3h5.5l-4.5 3.2 1.7 5.2-4.4-3.2-4.4 3.2 1.7-5.2-4.5-3.2h5.5z"/></g></g></svg>