<svg xmlns="http://www.w3.org/2000/svg" viewBox="0 0 400 400">
  <g fill-rule="evenodd">
    <path fill="#fc657e" d="M10.898 65.8c-4.805 2.958-3.501 9.888 2.062 10.964 1.122.217 4.38.591 7.24.831 2.86.241 6.91.6 9 .799 2.09.199 5.96.558 8.6.796 2.64.239 6.51.602 8.6.806 15.996 1.563 15.374 1.593 17.691-.843 2.253-2.369 2.239-5.623-.036-7.898-1.724-1.724-2.413-1.921-8.6-2.464-3.739-.327-6.765-.61-17.055-1.591a15694.537 15694.537 0 0 0-23.2-2.201c-2.341-.222-2.769-.143-4.302.801M98 77.2c0 .22-.294.4-.653.4-2.849 0-3.639 6.692-1.069 9.046 3.732 3.418 8.922 1.032 8.922-4.1-.001-2.915-1.047-4.946-2.547-4.946-.359 0-.653-.18-.653-.4 0-.22-.9-.4-2-.4s-2 .18-2 .4m226.487 15.208a109.72 109.72 0 0 0-3.547.577l-1.435.269.265 2.273c.985 8.471.498 10.073-3.059 10.073-3.125 0-3.94-1.216-4.752-7.086-.563-4.067-.668-4.189-3.199-3.709-1.536.291-6.211 1.022-15.56 2.434-1.43.216-3.59.554-4.8.752-1.21.197-3.55.561-5.2.809-1.65.248-3.99.608-5.2.8-1.21.192-3.55.555-5.2.805-6.861 1.04-8.295 1.264-10.2 1.592-1.1.19-3.485.57-5.3.846-3.774.573-3.705.449-2.764 4.957l.501 2.4 8.582-.114c4.719-.063 14.611-.285 21.981-.493 7.37-.208 20.78-.582 29.8-.831s16.463-.511 16.541-.582c.137-.125-2.814-12.312-3.603-14.88-.43-1.397-.414-1.393-3.851-.892M242.2 105.28c-1.1.204-2.72.495-3.6.647l-1.6.277v4.396l4.9.112 4.9.113v-.982c0-.54-.211-1.896-.469-3.012-.519-2.249-.466-2.229-4.131-1.551m70.7 11.419c-5.809.149-5.646-.102-3.343 5.15.856 1.953 2.498 5.711 3.649 8.351 2.492 5.717 3.366 7.698 4.639 10.512.525 1.161.955 2.191.955 2.288 0 .097.43 1.127.955 2.288a420.217 420.217 0 0 1 4.362 9.912c3.236 7.565 6.431 14.875 8.528 19.512.525 1.161.955 2.191.955 2.288 0 .097.43 1.127.955 2.288A486.086 486.086 0 0 1 338.4 188c.712 1.65 1.612 3.72 2 4.6.389.88 1.918 4.39 3.397 7.8 4.658 10.735 4.95 11.306 5.643 11.04.345-.133 1.648-.352 2.894-.488 2.534-.276 3.883-.947 4.254-2.115.364-1.145-17.53-72.708-19.059-76.226a485.914 485.914 0 0 0-2.175-4.923c-.525-1.161-.954-2.191-.954-2.288 0-.097-.45-1.172-1-2.388l-1.995-4.412-.994-2.2-6.306.086c-3.468.048-8.51.144-11.205.213m-28.4 1.029c-4.671.223-8.1.551-8.1.773 0 .332 1.904 4.877 4.399 10.499 1.572 3.544 2.536 5.701 3.446 7.712.525 1.161.955 2.191.955 2.288 0 .097.43 1.127.955 2.288 1.858 4.107 2.597 5.789 5.761 13.112 4.228 9.786 6.732 15.498 8.729 19.912.525 1.161.955 2.191.955 2.288 0 .097.43 1.127.955 2.288 1.997 4.414 4.501 10.126 8.729 19.912 1.759 4.07 3.559 8.21 4.002 9.2 1.942 4.348 2.62 5.883 3.149 7.126.507 1.191.688 1.301 1.765 1.073.66-.139 2.37-.434 3.8-.655 1.43-.221 3.68-.576 5-.79 4.593-.744 7.612-1.198 9.5-1.426 2.466-.298 2.555.121-2.281-10.728a571.22 571.22 0 0 1-4.024-9.2 439.302 439.302 0 0 0-3.24-7.312c-.525-1.161-.955-2.191-.955-2.288 0-.097-.429-1.127-.954-2.288a948.23 948.23 0 0 1-3.647-8.312c-1.481-3.41-3.01-6.92-3.399-7.8-.388-.88-1.288-2.95-2-4.6a676.42 676.42 0 0 0-3.507-8c-.44-.99-1.381-3.15-2.093-4.8s-1.613-3.72-2.002-4.6c-1.3-2.934-4.863-11.15-6.681-15.4a518.06 518.06 0 0 0-2.692-6.2c-.493-1.1-1.149-2.585-1.458-3.3l-.562-1.3-3.203.071c-1.761.038-6.847.244-11.302.457m-32.457.716c-3.827.186-7.049.428-7.16.54-.176.176.639 2.177 3.918 9.616.388.88 1.287 2.95 1.999 4.6a486.086 486.086 0 0 0 3.845 8.712c.525 1.161.955 2.191.955 2.288 0 .097.429 1.127.954 2.288a925.85 925.85 0 0 1 3.646 8.312 925.85 925.85 0 0 0 3.646 8.312c.525 1.161.954 2.191.954 2.288 0 .097.43 1.127.955 2.288a491.13 491.13 0 0 1 3.287 7.412l1.116 2.6c.307.715.916 2.11 1.353 3.1.438.99 2.006 4.59 3.484 8 4.047 9.333 6.595 15.163 7.653 17.512.524 1.161.952 2.191.952 2.288 0 .097.43 1.127.955 2.288a574.23 574.23 0 0 1 3.35 7.56c1.138 2.616.599 2.55 9.295 1.138a828.293 828.293 0 0 1 10.158-1.592c3.425-.508 3.418-.394.434-7.248-5.118-11.757-6.694-15.359-7.64-17.458-.524-1.161-.952-2.191-.952-2.288 0-.097-.43-1.127-.955-2.288a430.452 430.452 0 0 1-4.365-9.912c-2.095-4.891-6.041-13.976-6.948-16-.345-.77-.854-1.94-1.132-2.6-1.125-2.673-2.675-6.2-4.445-10.112-.525-1.161-.955-2.191-.955-2.288 0-.156-.414-1.1-2.629-6-.298-.66-2.441-5.61-4.762-11-2.321-5.39-4.54-10.43-4.933-11.2l-.713-1.4-4.182-.046c-2.299-.026-7.312.105-11.138.29M238.539 129.8c.137 2.86.428 7.9.648 11.2.466 6.992 1.04 15.856 1.593 24.6l.835 13.2.444 7 2.032 4.8c1.118 2.64 2.545 5.93 3.171 7.31.626 1.381 1.138 2.59 1.138 2.688 0 .098.45 1.174 1 2.39l2 4.424c.55 1.216 1 2.291 1 2.388 0 .097.43 1.127.955 2.288a582.518 582.518 0 0 1 4.025 9.112c2.061 4.75 1.124 4.495 11.02 3 4.73-.715 9.44-1.421 10.466-1.569 2.112-.305 2.13-.482.43-4.231-.449-.99-1.625-3.69-2.613-6-2.482-5.802-5.782-13.383-6.927-15.912-.526-1.161-.956-2.191-.956-2.288 0-.097-.45-1.172-1-2.388l-2-4.424c-.55-1.216-1-2.291-1-2.388 0-.097-.43-1.127-.955-2.288a420.217 420.217 0 0 1-4.362-9.912 1926.653 1926.653 0 0 0-6.681-15.4c-.389-.88-1.29-2.95-2.002-4.6a486.086 486.086 0 0 0-3.845-8.712c-.525-1.161-.955-2.191-.955-2.288 0-.097-.431-1.127-.958-2.288-.528-1.162-2.163-4.902-3.635-8.312-1.473-3.41-2.776-6.29-2.896-6.4-.121-.11-.108 2.14.028 5m5.305 81.328c-.139.226-.072 2.449.148 4.941.221 2.492.403 5.542.405 6.777.005 3.314 1.042 4.51 3.691 4.255 2.729-.262 3.005-.665 1.968-2.872-.471-1.001-.856-1.907-.856-2.013 0-.106-.45-1.188-1-2.404a850.846 850.846 0 0 1-2.02-4.512c-1.852-4.179-2.08-4.586-2.336-4.172"/>
    <path fill="#f5c84c" d="M124.5 35.398c-.275.313-.5 1.026-.5 1.585 0 .559-.18 1.017-.4 1.017-.22 0-.4.36-.4.8 0 .44-.18.8-.4.8-.22 0-.402.315-.404.7-.002.385-.576 1.15-1.276 1.7-.7.55-1.68 1.405-2.178 1.9-.498.495-1.184.9-1.524.9-.34 0-.618.18-.618.4 0 .22-.36.4-.8.4-.44 0-.8.169-.8.376s-.675.432-1.5.5c-1.763.146-2.632 2.324-.927 2.324.455 0 .827.18.827.4 0 .22.355.4.788.4 1.006 0 3.375 1.327 4.656 2.608.546.545 1.164.992 1.374.992.21 0 .382.23.382.512 0 .281.36.771.8 1.088.44.317.8.807.8 1.088 0 .282.18.512.4.512.22 0 .4.36.4.8 0 .44.18.8.4.8.22 0 .406.405.413.9.036 2.595 2.726 2.8 2.774.212.016-.839 1.339-3.251 2.419-4.411.437-.469.794-1.088.794-1.376 0-.289.225-.525.5-.526.275 0 1.13-.54 1.9-1.199s1.625-1.199 1.9-1.199c.275-.001.5-.181.5-.401 0-.22.54-.4 1.2-.4.66 0 1.2-.18 1.2-.4 0-.22.372-.4.827-.4 1.705 0 .836-2.178-.927-2.324-.825-.068-1.5-.293-1.5-.5 0-.207-.36-.376-.8-.376-.44 0-.8-.18-.8-.4 0-.22-.225-.4-.5-.4-.907-.001-5.1-3.811-5.1-4.634 0-.311-.18-.566-.4-.566-.22 0-.4-.36-.4-.8 0-.44-.18-.8-.4-.8-.22 0-.4-.463-.4-1.029 0-1.745-1.341-2.662-2.3-1.573m127.584 26.955c-.723.136-1.308.382-1.3.547.009.165.016 1.02.016 1.9 0 2.126.552 2.006 2.96-.643L255.721 62l-1.161.053c-.638.029-1.752.164-2.476.3m-13.284 2.02c-.77.171-2.93.53-4.8.798-1.87.268-4.3.645-5.4.837-1.1.192-3.35.55-5 .796-2.894.43-4.407.664-10 1.546-1.43.225-3.86.605-5.4.845-1.54.24-3.79.598-5 .796-1.21.197-3.55.561-5.2.809-2.909.436-4.544.69-10 1.55-3.306.52-7.281 1.139-10.6 1.65l-5.2.8c-1.43.22-3.778.602-5.217.849l-2.617.448.244 1.852c.135 1.018.406 2.751.602 3.851 1.259 7.057 1.25 6.92.587 8.201-.788 1.525-2.914 2.608-4.391 2.237-2.261-.568-2.827-1.774-3.819-8.138-1.171-7.517-.358-6.941-8.076-5.726-8.125 1.28-7.385.574-7.016 6.692 1.18 19.567 1.802 27.793 2.128 28.117.363.362 14.488.117 44.975-.78 7.15-.21 18.49-.488 25.2-.617 15.57-.3 14 .142 14-3.945 0-6.707 1.906-8.662 9.6-9.847 1.65-.254 3.63-.588 4.4-.743l1.4-.281.031-6.985c.024-5.315.197-7.583.723-9.484.616-2.226.628-2.62.104-3.6-.323-.606-.787-2.361-1.032-3.901-1.567-9.888-1.328-9.492-5.226-8.627m24.585 1.703c-7.717 6.166-11.17 13.332-11.18 23.204-.007 7.097-.821 6.599 8.395 5.131 4.097-.653 7.767-1.213 9.7-1.48 2.229-.308 2.303.414-1.503-14.741-3.645-14.517-3.318-13.786-5.412-12.114M218.5 119.499c-2.915.068-5.3.204-5.3.303 0 .098.54 1.357 1.2 2.798.66 1.441 1.2 2.7 1.2 2.798 0 .098.43 1.129.955 2.29a808.169 808.169 0 0 1 1.845 4.112c.489 1.1 1.319 2.95 1.845 4.112.525 1.161.955 2.191.955 2.288 0 .097.431 1.127.958 2.288 1.303 2.875 8.617 19.793 9.063 20.968.717 1.885 1.171.983.986-1.956-1.128-17.852-1.718-26.696-2.27-34l-.476-6.3-2.83.087c-1.557.048-5.216.144-8.131.212m-26.6.626c-11.147.432-10.488.152-8.854 3.763l2 4.424c.525 1.161.954 2.191.954 2.288 0 .097.43 1.127.955 2.288 2.197 4.857 7.612 17.209 10.132 23.112.986 2.31 2.114 4.92 2.507 5.8.393.88 1.116 2.5 1.605 3.6.49 1.1 1.32 2.95 1.846 4.112.525 1.161.955 2.191.955 2.288 0 .097.43 1.127.955 2.288 1.49 3.295 2.351 5.249 5.245 11.912 1.481 3.41 3.011 6.92 3.4 7.8.388.88 1.288 2.95 2 4.6.712 1.65 1.633 3.765 2.047 4.7a1003.2 1003.2 0 0 0 3.398 7.612c.525 1.161.955 2.191.955 2.288 0 .097.429 1.127.953 2.288a921.005 921.005 0 0 1 3.466 7.912c3.09 7.131 2.878 6.849 4.928 6.567 5.277-.725 5.916-.961 5.689-2.1-.281-1.414-.889-8.98-1.435-17.867-.243-3.96-.613-9.19-.822-11.621-.208-2.432-.379-5.605-.379-7.051 0-2.517-.24-3.391-2.041-7.428-.418-.935-1.139-2.555-1.604-3.6a742.656 742.656 0 0 0-1.8-4.012c-.525-1.161-.955-2.191-.955-2.288 0-.097-.429-1.127-.954-2.288a948.23 948.23 0 0 1-3.647-8.312c-1.481-3.41-3.01-6.92-3.399-7.8-.388-.88-1.288-2.95-2-4.6a486.086 486.086 0 0 0-3.845-8.712c-.525-1.161-.955-2.191-.955-2.288 0-.097-.43-1.127-.955-2.288-1.506-3.328-2.411-5.379-4.554-10.312-3.385-7.79-3.273-7.61-4.665-7.53-.674.039-5.681.244-11.126.455m-34 .974c-4.816.076-7.5.267-7.5.532 0 .389.273 1.037 2.645 6.281.525 1.161.955 2.191.955 2.288 0 .097.43 1.127.955 2.288a420.217 420.217 0 0 1 4.362 9.912c2.482 5.802 5.782 13.383 6.927 15.912.526 1.161.956 2.191.956 2.288 0 .097.45 1.172 1 2.388l2 4.424c.55 1.216 1 2.291 1 2.388 0 .097.43 1.127.955 2.288 2.017 4.459 2.642 5.882 4.967 11.312 2.212 5.166 4.172 9.679 6.168 14.2.437.99 1.045 2.385 1.352 3.1l1.116 2.6c.307.715.915 2.11 1.353 3.1.437.99 1.377 3.15 2.089 4.8s1.612 3.72 2 4.6c.389.88 1.913 4.39 3.387 7.8s3.183 7.298 3.797 8.64l1.118 2.439 2.149-.309c1.182-.17 3.409-.511 4.949-.757 1.54-.247 3.88-.612 5.2-.813 8.463-1.286 9-1.405 9-1.991 0-.323-2.449-5.99-5.757-13.321-.574-1.271-1.043-2.391-1.043-2.488 0-.097-.43-1.127-.955-2.288-1.798-3.975-2.564-5.723-6.445-14.712a2146.86 2146.86 0 0 0-4.643-10.7c-2.158-4.846-3.012-6.794-4.162-9.5-.489-1.149-1.462-3.355-3.001-6.8-.393-.88-1.523-3.49-2.511-5.8-3.236-7.565-6.431-14.875-8.528-19.512-.525-1.161-.955-2.191-.955-2.288 0-.097-.43-1.127-.955-2.288A808.169 808.169 0 0 1 180 137c-.489-1.1-1.319-2.95-1.845-4.112-.525-1.161-.955-2.198-.955-2.304 0-.106-.346-.956-.769-1.888l-2.174-4.796-1.405-3.1-3.726.091c-2.049.049-7.101.143-11.226.208M145.788 135.8c.126 2.42.4 6.92.609 10 .426 6.265.97 14.651 1.611 24.8.237 3.74.601 8.898.811 11.463.21 2.565.381 5.918.381 7.451 0 2.689.218 3.5 2.041 7.586.418.935 1.139 2.555 1.604 3.6.464 1.045 1.274 2.85 1.8 4.012.525 1.161.955 2.191.955 2.288 0 .097.43 1.127.955 2.288.525 1.162 2.526 5.712 4.448 10.112 1.921 4.4 3.921 8.95 4.445 10.112.524 1.161.952 2.191.952 2.288 0 .162 1.223 2.937 2.689 6.1.738 1.594.059 1.601 11.158-.119 9.991-1.549 10.953-1.736 10.953-2.136 0-.219-3.421-8.179-5.778-13.445-.296-.66-.937-2.1-1.425-3.2-.487-1.1-1.316-2.95-1.842-4.112-.525-1.161-.955-2.191-.955-2.288 0-.097-.43-1.127-.955-2.288-1.691-3.739-4.171-9.399-9.25-21.112-2.863-6.604-3.722-8.556-5.24-11.912-.525-1.161-.955-2.191-.955-2.288 0-.097-.43-1.127-.955-2.288a759.13 759.13 0 0 1-1.755-3.912c-.439-.99-1.16-2.61-1.601-3.6-.442-.99-2.552-5.85-4.689-10.8-2.137-4.95-4.247-9.81-4.689-10.8-.917-2.057-1.972-4.432-3.375-7.6-2.25-5.078-2.203-5.073-1.948-.2M87.4 213.2c-.136.22-.531.4-.877.4-2.028 0-3.66 6.566-2.023 8.137 3.03 2.908 6.252 3.039 8.566.348 2.039-2.371.852-8.485-1.648-8.485-.34 0-.618-.18-.618-.4 0-.22-.709-.4-1.576-.4-.867 0-1.688.18-1.824.4m64.067 9.283c.093 2.044.341 5.479.551 7.633.21 2.153.382 4.916.382 6.14 0 3.998 3.635 6.128 7.772 4.555l1.025-.39-.839-2.11c-1.062-2.669-.893-2.273-4.882-11.493-3.929-9.083-4.239-9.418-4.009-4.335M370 277.2c0 .22-.225.4-.5.4-2.884.003-3.886 6.441-1.39 8.936 2.04 2.041 5.293 2.088 7.275.106 2.669-2.669 2.003-7.448-1.302-9.342-1.039-.596-4.083-.67-4.083-.1"/>
    <path d="M199.091 9.842c-.165.166-1.693.446-3.396.623-5.528.577-6.895.809-6.895 1.175 0 .198-.54.36-1.2.36-.66 0-1.2.18-1.2.4 0 .22-.54.4-1.2.4-.66 0-1.2.18-1.2.4 0 .22-.272.4-.605.4-.333 0-.963.18-1.4.4l-1.595.8c-1.295.647-2.585 1.385-2.8 1.601-.11.11-.74.469-1.4.797-.66.328-1.491.913-1.847 1.299-.356.387-.832.703-1.059.703-.227 0-1.788 1.345-3.47 2.989-1.681 1.644-3.372 3.219-3.757 3.5-.385.281-1.323 1.315-2.084 2.297-.761.982-1.698 2.141-2.083 2.576-.385.434-.7 1.01-.7 1.28s-.157.551-.349.625c-.472.18-2.451 4.152-2.451 4.92 0 .337-.18.613-.4.613-.22 0-.4.54-.4 1.2 0 .66-.18 1.2-.4 1.2-.22 0-.4.36-.4.8 0 .44-.18.8-.4.8-.22 0-.4.54-.4 1.2 0 .66-.18 1.2-.4 1.2-.22 0-.4.619-.4 1.376 0 .757-.18 1.488-.4 1.624-.22.136-.4 1.227-.4 2.424 0 1.197-.18 2.176-.4 2.176-.558 0-.535 12.105.024 12.664.234.234.369 1.305.3 2.38L154.2 69l-2.7.118c-1.485.065-2.7.29-2.7.5 0 .21-1.08.382-2.4.382-1.333 0-2.4.178-2.4.4 0 .22-.99.4-2.2.4-1.21 0-2.2.18-2.2.4 0 .22-.36.4-.8.4-.44 0-.8.18-.8.4 0 .22-.278.4-.618.4-.8 0-2.582 1.782-2.582 2.582 0 .34-.18.618-.4.618-.254 0-.4 3.067-.4 8.4s.146 8.4.4 8.4c.248 0 .4 2.192.4 5.776 0 3.42.163 5.878.4 6.024.225.139.4 2.063.4 4.4v4.153l-4.9.24c-2.695.131-11.016.327-18.491.434-8.004.114-13.75.354-13.98.584-.87.87-16.629.481-16.629-.411 0-.44-.18-.8-.4-.8-.22 0-.4-.36-.4-.8 0-.44-.18-.8-.4-.8-.22 0-.4-.45-.4-1s-.18-1-.4-1c-.22 0-.4-.36-.4-.8 0-.44-.18-.8-.4-.8-.22 0-.4-.36-.4-.8 0-.44-.18-.8-.4-.8-.22 0-.4-.349-.4-.776 0-.427-.18-.888-.4-1.024-.22-.136-.4-.687-.4-1.224 0-.537-.18-.976-.4-.976-.22 0-.4-.345-.4-.767 0-.421-.135-.826-.3-.9-.165-.073-.637-1.123-1.049-2.333-.947-2.785-2.317-5.76-2.732-5.933-.176-.074-.319-.558-.319-1.077 0-.518-.18-1.054-.4-1.19-.22-.136-.4-.597-.4-1.024 0-.427-.18-.776-.4-.776-.781 0-.383-1.225.8-2.463.66-.691 1.2-1.499 1.2-1.796 0-.298.18-.541.4-.541.22 0 .4-.36.4-.8 0-.44.143-.8.317-.8.555 0 1.283-3.519 1.283-6.2s-.728-6.2-1.283-6.2c-.174 0-.317-.36-.317-.8 0-.44-.18-.8-.4-.8-.22 0-.4-.248-.4-.552 0-.739-2.908-3.701-3.962-4.036-.461-.146-.838-.434-.838-.639 0-.205-.349-.373-.776-.373-.427 0-.888-.18-1.024-.4-.136-.22-.831-.4-1.544-.4-.713 0-1.467-.168-1.676-.373-.209-.205-2-.469-3.98-.588-1.98-.118-5.4-.384-7.6-.591-9.312-.877-13.803-1.198-17.076-1.222-1.912-.014-3.588-.206-3.724-.426-.136-.221-1.93-.4-4-.4-2.07 0-3.864-.179-4-.4-.331-.536-12.869-.536-13.2 0-.136.22-.687.4-1.224.4-.537 0-.976.158-.976.351 0 .194-.548.579-1.217.856C4.136 59.406 2 61.318 2 62.014c0 .27-.405.844-.9 1.273-1.397 1.212-1.397 14.215 0 15.426.495.43.9.993.9 1.252 0 .641 1.837 2.435 2.494 2.435.291 0 .789.36 1.106.8.317.44.897.8 1.288.8.392 0 .712.18.712.4 0 .22.54.4 1.2.4.66 0 1.2.18 1.2.4 0 .235 1.392.4 3.376.4 1.857 0 3.488.18 3.624.4.139.225 2.071.4 4.424.4 2.319 0 4.176.166 4.176.373 0 .206 1.845.477 4.1.604 2.255.126 5.945.329 8.2.452 2.255.122 4.1.391 4.1.597 0 .207 1.774.374 3.976.374 2.22 0 4.086.177 4.224.4.136.22 1.896.4 3.91.4 3.888 0 7.09.84 7.09 1.86 0 .303.18.908.4 1.345l.8 1.59c.22.437.4 1.067.4 1.4 0 .333.18.605.4.605.22 0 .4.36.4.8 0 .44.18.8.4.8.22 0 .4.439.4.976 0 .537.18 1.088.4 1.224.22.136.4.597.4 1.024 0 .427.18.776.4.776.22 0 .4.36.4.8 0 .44.18.8.4.8.22 0 .4.349.4.776 0 .427.18.888.4 1.024.22.136.4.597.4 1.024 0 .427.18.776.4.776.22 0 .4.36.4.8 0 .44.18.8.4.8.22 0 .4.36.4.8 0 .44.18.8.4.8.22 0 .4.54.4 1.2 0 .66.18 1.2.4 1.2.22 0 .4.36.4.8 0 .44.18.8.4.8.22 0 .4.36.4.8 0 .44.18.8.4.8.22 0 .4.439.4.976 0 .537.18 1.088.4 1.224.22.136.4.597.4 1.024 0 .427.18.776.4.776.22 0 .4.36.4.8 0 .44.158.8.35.8.193 0 .458.539.59 1.198.131.658.604 1.952 1.05 2.875.445.922.81 1.913.81 2.202 0 .289.147.525.328.525.18 0 .572.9.872 2 .3 1.1.692 2 .872 2 .181 0 .328.36.328.8 0 .44.18.8.4.8.22 0 .4.272.4.605 0 .333.159.918.354 1.3 1.822 3.573 2.846 5.931 2.846 6.551 0 .409.18.744.4.744.22 0 .4.36.4.8 0 .44.18.8.4.8.22 0 .4.36.4.8 0 .44.18.8.4.8.22 0 .4.439.4.976 0 .537.18 1.088.4 1.224.22.136.4.597.4 1.024 0 .427.18.776.4.776.22 0 .4.36.4.8 0 .44.18.8.4.8.22 0 .4.36.4.8 0 .44.18.8.4.8.22 0 .4.343.4.762 0 .816 1.601 4.15 2.1 4.371.165.074.3.659.3 1.3 0 .642.18 1.167.4 1.167.22 0 .401.315.402.7.002.385.272 1.216.6 1.846.329.63.598 1.395.598 1.7 0 .305.18.554.4.554.22 0 .4.355.4.788 0 .433.36 1.429.8 2.212.44.783.8 1.689.8 2.012 0 .323.18.588.4.588.22 0 .4.349.4.776 0 .427.18.888.4 1.024.22.136.4.597.4 1.024 0 .427.18.776.4.776.22 0 .4.36.4.8 0 .44.18.8.4.8.22 0 .4.439.4.976 0 .537.18 1.088.4 1.224.22.136.4.597.4 1.024 0 .427.18.776.4.776.22 0 .4.36.4.8 0 .44.18.8.4.8.22 0 .4.36.4.8 0 .44.18.8.4.8.22 0 .4.439.4.976 0 .537.18 1.088.4 1.224.22.136.4.597.4 1.024 0 .427.18.776.4.776.22 0 .4.36.4.8 0 .44.18.8.4.8.22 0 .4.45.4 1s.18 1 .4 1c.22 0 .4.36.4.8 0 .44.18.8.4.8.22 0 .4.36.4.8 0 .44.18.8.4.8.22 0 .4.349.4.776 0 .427.18.888.4 1.024.22.136.4.687.4 1.224 0 .537.18.976.4.976.22 0 .4.288.4.64 0 .351.288 1.296.641 2.1.352.803.785 1.82.961 2.26.176.44.877 2.004 1.559 3.475.681 1.471 1.239 2.956 1.239 3.3 0 .344.18.625.4.625.22 0 .4.36.4.8 0 .44.18.8.4.8.22 0 .4.272.4.605 0 .333.18.963.4 1.4l.8 1.59c.22.437.4 1.067.4 1.4 0 .333.18.605.4.605.22 0 .4.36.4.8 0 .44.18.8.4.8.22 0 .4.45.4 1s.18 1 .4 1c.22 0 .4.36.4.8 0 .44.18.8.4.8.22 0 .4.36.4.8 0 .44.18.8.4.8.22 0 .4.349.4.776 0 .427.18.888.4 1.024.22.136.4.687.4 1.224 0 .537.18.976.4.976.22 0 .4.36.4.8 0 .44.18.8.4.8.22 0 .4.36.4.8 0 .44.18.8.4.8.22 0 .4.54.4 1.2 0 .66.18 1.2.4 1.2.22 0 .4.36.4.8 0 .44.158.8.35.8.193 0 .458.539.59 1.198.131.658.604 1.952 1.05 2.875.445.922.81 1.913.81 2.202 0 .289.18.525.4.525.22 0 .4.272.4.605 0 .333.18.963.4 1.4l.8 1.59c.22.437.4 1.067.4 1.4 0 .333.18.605.4.605.22 0 .4.236.4.525 0 .288.36.911.8 1.383.44.472.8 1.032.8 1.245 0 .212 1.253 1.615 2.785 3.116 4.047 3.968 4.718 4.531 5.401 4.531.338 0 .614.18.614.4 0 .22.36.4.8.4.44 0 .8.18.8.4 0 .22.27.4.6.4.33 0 .6.18.6.4 0 .22.36.4.8.4.44 0 .8.18.8.4 0 .22.54.4 1.2.4.66 0 1.2.18 1.2.4 0 .22.799.4 1.776.4s1.888.18 2.024.4c.136.22 1.317.4 2.624.4 2.945 0 2.998-.234-.824 3.624-1.76 1.777-3.2 3.407-3.2 3.621 0 .215-.437.828-.971 1.362-.534.534-1.293 1.516-1.686 2.182-.394.666-.857 1.211-1.029 1.211-.173 0-.314.188-.314.417 0 .229-.36.803-.8 1.275-.44.472-.8 1.095-.8 1.383 0 .289-.152.525-.337.525-.185 0-.68.675-1.1 1.5-.42.825-1.078 1.791-1.463 2.147-.385.356-.7.901-.7 1.212 0 .31-.36.824-.8 1.141-.44.317-.8.857-.8 1.2 0 .343-.36.883-.8 1.2-.44.317-.8.78-.8 1.029 0 .249-.54 1.017-1.2 1.708-.66.691-1.2 1.437-1.2 1.659 0 .222-.18.404-.4.404-.22 0-.4.27-.4.6 0 .33-.18.6-.4.6-.22 0-.4.27-.4.6 0 .33-.15.6-.332.6-.183 0-.587.495-.898 1.1-.31.605-.881 1.391-1.267 1.747-.387.356-.703.875-.703 1.153s-.332.797-.737 1.153c-.406.356-.97 1.086-1.254 1.622-.285.536-.675 1.166-.869 1.4-.989 1.196-2.34 3.53-2.34 4.043 0 .32-.135.583-.3.585-.401.004-1.3 1.978-1.3 2.853 0 .383-.18.808-.4.944-.231.142-.4 2.271-.4 5.024 0 2.917.156 4.776.4 4.776.22 0 .4.54.4 1.2 0 .66.18 1.2.4 1.2.22 0 .4.36.4.8 0 .44.18.8.4.8.22 0 .403.315.406.7.004.385.544 1.309 1.2 2.054.657.745 1.194 1.51 1.194 1.7 0 .19.198.346.44.346.241 0 .943.54 1.56 1.2.617.66 1.409 1.2 1.76 1.2.352 0 .64.18.64.4 0 .22.36.4.8.4.44 0 .8.18.8.4 0 .22.439.4.976.4.537 0 1.088.18 1.224.4.146.237 2.604.4 6.024.4 3.177 0 5.776.096 5.776.213 0 .118-.615.829-1.367 1.58-.751.752-1.484 1.736-1.627 2.187-.143.451-.41.82-.593.82-.184 0-.667.809-1.073 1.799-.407.989-.875 1.799-1.04 1.8-.165 0-.3.35-.3.777 0 .427-.18.888-.4 1.024-.22.136-.4.687-.4 1.224 0 .537-.18.976-.4.976-.22 0-.4.72-.4 1.6 0 .88-.18 1.6-.4 1.6-.251 0-.4 2.6-.4 7s.149 7 .4 7c.22 0 .4.72.4 1.6 0 .88.18 1.6.4 1.6.22 0 .4.439.4.976 0 .537.18 1.088.4 1.224.22.136.4.597.4 1.024 0 .427.135.777.3.777.165.001.633.811 1.04 1.8.406.99.901 1.799 1.1 1.799.198 0 .36.254.36.563 0 .725 6.577 7.437 7.287 7.437.295 0 .796.36 1.113.8.317.44.897.8 1.288.8.392 0 .712.18.712.4 0 .22.36.4.8.4.44 0 .8.18.8.4 0 .22.36.4.8.4.44 0 .8.18.8.4 0 .22.439.4.976.4.537 0 1.088.18 1.224.4.136.22.676.4 1.2.4.524 0 1.064.18 1.2.4.136.22 1.371.4 2.744.4 1.373 0 2.696.2 2.941.445.281.281 1.087.346 2.18.175.954-.149 3.04-.364 4.635-.477 1.595-.113 2.9-.372 2.9-.575 0-.202.363-.368.806-.368 1.127 0 3.994-.931 3.994-1.297 0-.167.36-.303.8-.303.44 0 .8-.18.8-.4 0-.22.36-.4.8-.4.44 0 .8-.18.8-.4 0-.22.36-.4.8-.4.44 0 .8-.138.8-.306 0-.168.704-.74 1.563-1.271.86-.532 1.805-1.322 2.1-1.756.296-.435 1.662-1.929 3.037-3.321 1.375-1.392 2.5-2.805 2.5-3.139 0-.334.18-.607.4-.607.22 0 .4-.27.4-.6 0-.33.18-.6.4-.6.22 0 .4-.27.4-.6 0-.33.18-.6.4-.6.22 0 .4-.45.4-1s.18-1 .4-1c.22 0 .4-.349.4-.776 0-.427.18-.888.4-1.024.22-.136.4-.867.4-1.624 0-.757.18-1.376.4-1.376.222 0 .4-1.059.4-2.376 0-1.307.18-2.488.4-2.624.523-.323.523-5 0-5-.229 0-.4-1.2-.4-2.8 0-1.6-.171-2.8-.4-2.8-.22 0-.4-.529-.4-1.176 0-.647-.18-1.288-.4-1.424-.22-.136-.4-.687-.4-1.224 0-.537-.18-.976-.4-.976-.22 0-.4-.36-.4-.8 0-.44-.136-.8-.302-.8-.167 0-.558-.585-.87-1.3-.312-.715-.896-1.591-1.298-1.947-.401-.356-.73-.865-.73-1.131 0-.267-.72-1.176-1.6-2.022-.88-.846-1.6-1.641-1.6-1.769 0-.127 19.89-.231 44.2-.231 24.31 0 44.2.104 44.2.231 0 .128-.72.923-1.6 1.769-.88.846-1.6 1.821-1.6 2.169 0 .347-.151.631-.336.631-.446 0-2.464 3.73-2.464 4.554 0 .355-.18.646-.4.646-.22 0-.4.45-.4 1s-.18 1-.4 1c-.22 0-.4.63-.4 1.4 0 .77-.18 1.4-.4 1.4-.222 0-.4 1.059-.4 2.376 0 1.307-.18 2.488-.4 2.624-.523.323-.523 5 0 5 .229 0 .4 1.2.4 2.8 0 1.6.171 2.8.4 2.8.22 0 .4.619.4 1.376 0 .757.18 1.488.4 1.624.22.136.4.597.4 1.024 0 .427.18.776.4.776.22 0 .4.264.4.586 0 .742 1.239 3.444 1.9 4.143.275.29.5.7.5.911 0 .623 7.969 8.36 8.611 8.36.324 0 .589.18.589.4 0 .22.283.4.629.4.345 0 .907.279 1.248.62.341.34 1.138.723 1.771.85.634.126 1.152.387 1.152.58 0 .192.349.35.776.35.427 0 .888.18 1.024.4.136.22.741.4 1.344.4.603 0 1.267.165 1.476.366 1.098 1.059 14.066 1.06 15.16.002.209-.203.884-.368 1.5-.368s1.12-.18 1.12-.4c0-.22.54-.4 1.2-.4.66 0 1.2-.18 1.2-.4 0-.22.36-.4.8-.4.44 0 .8-.18.8-.4 0-.22.36-.4.8-.4.44 0 .8-.18.8-.4 0-.22.236-.4.525-.4.288 0 .911-.36 1.383-.8.472-.44.982-.8 1.134-.8.462 0 6.958-6.773 6.958-7.255 0-.248.329-.742.73-1.098.402-.356.986-1.232 1.298-1.947.312-.715.703-1.3.87-1.3.166 0 .302-.349.302-.776 0-.427.18-.888.4-1.024.22-.136.4-.687.4-1.224 0-.537.18-.976.4-.976.22 0 .4-.72.4-1.6 0-.88.18-1.6.4-1.6.251 0 .4-2.6.4-7s-.149-7-.4-7c-.22 0-.4-.619-.4-1.376 0-.757-.18-1.488-.4-1.624-.22-.136-.4-.597-.4-1.024 0-.427-.18-.776-.4-.776-.22 0-.4-.362-.4-.805 0-.891-.631-2.135-1.7-3.35-.385-.438-.7-1.032-.7-1.32 0-.289-.15-.525-.332-.525-.183 0-.588-.495-.9-1.1-.313-.605-1.063-1.577-1.668-2.16-.605-.584-1.1-1.169-1.1-1.3 0-.132 3.589-.24 7.976-.24 4.887 0 8.073-.155 8.224-.4.136-.22.597-.4 1.024-.4.427 0 .776-.18.776-.4 0-.22.241-.4.536-.4.776 0 4.264-3.404 4.264-4.16 0-.352.135-.641.3-.643.359-.004 1.3-1.941 1.3-2.677 0-.286.18-.52.4-.52.512 0 .535-7.359.026-8.305-.205-.382-.609-1.28-.897-1.995-.289-.715-.66-1.3-.827-1.3-.166 0-.302-.276-.302-.613 0-.935-2.477-3.21-4.746-4.36l-2.027-1.027h-91.614c-50.387 0-91.613-.14-91.613-.312 0-.171.36-.571.8-.888.44-.317.8-.762.801-.988 0-.227.54-1.042 1.199-1.812s1.199-1.585 1.199-1.812c.001-.226.361-.671.801-.988.44-.317.8-.857.8-1.2 0-.343.36-.883.8-1.2.44-.317.8-.857.8-1.2 0-.343.36-.883.8-1.2.44-.317.8-.762.801-.988 0-.227.54-1.042 1.199-1.812s1.199-1.543 1.199-1.718c.001-.175.406-.736.901-1.247.495-.511 1.469-1.628 2.165-2.482 1.872-2.297 2.921-3.353 3.332-3.353.202 0 .78-.405 1.285-.9.505-.495 1.413-1.155 2.018-1.468.605-.312 1.1-.717 1.1-.9 0-.182.36-.332.8-.332.44 0 .8-.18.8-.4 0-.22.36-.4.8-.4.44 0 .8-.18.8-.4 0-.22.349-.4.776-.4.427 0 .888-.18 1.024-.4.136-.22.777-.4 1.424-.4.647 0 1.176-.18 1.176-.4 0-.22.72-.4 1.6-.4.88 0 1.6-.18 1.6-.4 0-.22.889-.4 1.976-.4s2.088-.18 2.224-.4c.136-.22 1.306-.4 2.6-.4s2.464-.18 2.6-.4c.136-.22 1.227-.4 2.424-.4 1.197 0 2.176-.18 2.176-.4 0-.22.855-.406 1.9-.413 1.767-.012 3.845-.272 9.9-1.239 1.32-.211 3.3-.482 4.4-.602 1.1-.121 2.171-.383 2.38-.583.209-.2 1.424-.363 2.7-.363 1.28 0 2.32-.179 2.32-.4 0-.222 1.067-.4 2.4-.4s2.4-.178 2.4-.4c0-.22.979-.4 2.176-.4s2.288-.18 2.424-.4c.136-.22 1.191-.4 2.344-.4 1.153 0 2.267-.164 2.476-.365.209-.2 1.415-.47 2.68-.6l4.6-.47c1.265-.13 2.471-.4 2.68-.6.209-.201 1.334-.365 2.5-.365s2.12-.18 2.12-.4c0-.222 1.067-.4 2.4-.4s2.4-.178 2.4-.4c0-.222 1.067-.4 2.4-.4s2.4-.178 2.4-.4c0-.22.979-.4 2.176-.4s2.288-.18 2.424-.4c.136-.22 1.227-.4 2.424-.4 1.197 0 2.176-.18 2.176-.4 0-.222 1.067-.4 2.4-.4s2.4-.178 2.4-.4c0-.222 1.067-.4 2.4-.4s2.4-.178 2.4-.4c0-.222 1.059-.4 2.376-.4 1.307 0 2.488-.18 2.624-.4.136-.22 1.216-.4 2.4-.4s2.264-.18 2.4-.4c.136-.22 1.216-.4 2.4-.4s2.264-.18 2.4-.4c.136-.22 1.227-.4 2.424-.4 1.197 0 2.176-.156 2.176-.347 0-.191 1.305-.453 2.9-.581 7.538-.606 14.7-2.515 14.7-3.919 0-.194.24-.353.532-.353.293 0 .787-.495 1.098-1.1.31-.605.881-1.391 1.267-1.747.387-.356.703-.941.703-1.3 0-.359.18-.653.4-.653.22 0 .4-.54.4-1.2 0-.66.18-1.2.4-1.2.235 0 .4-1.4.4-3.4s-.165-3.4-.4-3.4c-.22 0-.4-.525-.4-1.167 0-.641-.223-1.241-.496-1.332-1.287-.429.888-1.501 3.044-1.501 1.213 0 2.316-.18 2.452-.4.136-.22 1.227-.4 2.424-.4 1.197 0 2.176-.18 2.176-.4 0-.222 1.059-.4 2.376-.4 1.307 0 2.488-.18 2.624-.4.136-.22 1.216-.4 2.4-.4s2.264-.18 2.4-.4c.136-.22 1.216-.4 2.4-.4s2.264-.18 2.4-.4c.136-.22 1.227-.4 2.424-.4 1.197 0 2.176-.18 2.176-.4 0-.222 1.067-.4 2.4-.4s2.4-.178 2.4-.4c0-.22.799-.4 1.776-.4s1.888-.18 2.024-.4c.136-.22.597-.4 1.024-.4.427 0 .776-.18.776-.4 0-.22.36-.4.8-.4.44 0 .8-.18.8-.4 0-.22.27-.4.6-.4.33 0 .6-.18.6-.4 0-.22.186-.4.413-.4 1.327 0 5.187-5.518 5.187-7.414 0-.542.18-.986.4-.986.265 0 .4-17.467.4-51.6s-.135-51.6-.4-51.6c-.22 0-.4-.452-.4-1.003 0-1.921-4.392-6.597-6.197-6.597-.331 0-.603-.18-.603-.4 0-.22-.72-.4-1.6-.4-.88 0-1.6-.18-1.6-.4 0-.534-7.714-.526-8.249.009-.258.258-3.339.368-8.38.3l-7.971-.109-.114-1.2c-.063-.66-.276-1.56-.473-2-.197-.44-.45-1.34-.561-2-.112-.66-.407-2.01-.656-3-.25-.99-.551-2.387-.669-3.104-.119-.717-.376-1.402-.571-1.523-.196-.121-.356-.93-.356-1.797 0-.867-.18-1.576-.4-1.576-.22 0-.4-.619-.4-1.376 0-.757-.18-1.488-.4-1.624-.22-.136-.4-.513-.4-.837 0-.766-2.597-3.363-3.363-3.363-.324 0-.701-.18-.837-.4-.326-.527-6.6-.527-6.6 0 0 .225-1.125.4-2.576.4-1.417 0-2.688.18-2.824.4-.539.872-1 .319-1-1.2 0-.88-.18-1.6-.4-1.6-.22 0-.4-.709-.4-1.576 0-.867-.18-1.688-.4-1.824-.22-.136-.4-.777-.4-1.424 0-.647-.18-1.176-.4-1.176-.22 0-.4-.36-.4-.8 0-.44-.18-.8-.4-.8-.22 0-.4-.36-.4-.8 0-.44-.18-.8-.4-.8-.22 0-.4-.36-.4-.8 0-.44-.18-.8-.4-.8-.22 0-.4-.36-.4-.8 0-.44-.18-.8-.4-.8-.22 0-.4-.27-.4-.6 0-.33-.18-.6-.4-.6-.22 0-.4-.23-.4-.512 0-.281-.36-.771-.8-1.088-.44-.317-.8-.786-.8-1.043 0-.638-4.257-4.94-6.097-6.163-.824-.546-1.499-1.129-1.5-1.294-.002-.165-.281-.3-.62-.3-.339 0-1.003-.36-1.475-.8-.472-.44-1.095-.8-1.383-.8-.289 0-.525-.18-.525-.4 0-.22-.36-.4-.8-.4-.44 0-.8-.18-.8-.4 0-.22-.54-.4-1.2-.4-.66 0-1.2-.18-1.2-.4 0-.22-.349-.4-.776-.4-.427 0-.888-.18-1.024-.4-.136-.22-.766-.4-1.4-.4-.634 0-1.264-.18-1.4-.4-.136-.22-1.227-.4-2.424-.4-1.197 0-2.176-.18-2.176-.4 0-.243-1.8-.4-4.6-.4s-4.6.157-4.6.4c0 .222-1.067.4-2.4.4s-2.4.178-2.4.4c0 .22-.9.4-2 .4s-2-.18-2-.4c0-.243-1.8-.4-4.6-.4s-4.6.157-4.6.4c0 .222-1.067.4-2.4.4s-2.4.178-2.4.4c0 .22-.9.4-2 .4h-2V52c0-.88-.18-1.6-.4-1.6-.22 0-.4-.9-.4-2s-.18-2-.4-2c-.22 0-.4-.619-.4-1.376 0-.757-.18-1.488-.4-1.624-.22-.136-.4-.687-.4-1.224 0-.537-.18-.976-.4-.976-.22 0-.4-.439-.4-.976 0-.537-.18-1.088-.4-1.224-.22-.136-.4-.597-.4-1.024 0-.427-.18-.776-.4-.776-.22 0-.4-.36-.4-.8 0-.44-.18-.8-.4-.8-.22 0-.4-.32-.4-.712 0-.391-.36-.971-.8-1.288-.44-.317-.8-.897-.8-1.288 0-.392-.147-.712-.326-.712-.179 0-.619-.585-.977-1.3-1.092-2.181-6.993-8.7-7.874-8.7-.232 0-1.164-.72-2.071-1.6-.907-.88-1.897-1.6-2.2-1.6-.304 0-.552-.18-.552-.4 0-.22-.236-.4-.525-.4-.288 0-.911-.36-1.383-.8-.472-.44-1.121-.8-1.442-.8-.321 0-.643-.135-.717-.3-.221-.499-3.555-2.1-4.371-2.1-.419 0-.762-.136-.762-.303 0-.366-2.867-1.297-3.994-1.297-.443 0-.806-.18-.806-.4 0-.22-.684-.4-1.52-.4s-1.691-.166-1.9-.369c-.209-.203-1.73-.474-3.38-.604-1.65-.129-4.172-.336-5.604-.46-1.433-.124-2.74-.09-2.905.075M206.8 19.6c0 .22.799.4 1.776.4s1.888.18 2.024.4c.136.22.766.4 1.4.4.634 0 1.242.144 1.351.321.109.176 1.11.569 2.224.872 1.114.303 2.025.699 2.025.879 0 .181.36.328.8.328.44 0 .8.18.8.4 0 .22.338.4.751.4s.975.27 1.249.6c.274.33.796.6 1.161.6.364 0 .922.36 1.239.8.317.44.763.8.991.8.595 0 8.609 8.292 8.609 8.908 0 .284.36.775.8 1.092.44.317.8.897.8 1.288 0 .392.18.712.4.712.22 0 .4.27.4.6 0 .33.18.6.4.6.22 0 .4.36.4.8 0 .44.18.8.4.8.22 0 .4.36.4.8 0 .44.18.8.4.8.22 0 .4.349.4.776 0 .427.18.888.4 1.024.22.136.4.766.4 1.4 0 .634.18 1.264.4 1.4.22.136.4.957.4 1.824 0 .867.18 1.576.4 1.576.222 0 .4 1.067.4 2.4V56h-2.8c-1.6 0-2.8.171-2.8.4 0 .222-1.067.4-2.4.4s-2.4.178-2.4.4c0 .226-1.133.4-2.6.4-1.43 0-2.6.148-2.6.329 0 .18-2.025.532-4.5.781-2.475.25-5.76.651-7.3.892-1.54.242-3.925.535-5.3.653-1.375.117-2.5.363-2.5.545 0 .182-1.125.433-2.5.556-5.794.519-7.32.734-7.68 1.079-.209.201-1.413.365-2.676.365-1.263 0-2.408.18-2.544.4-.136.22-1.317.4-2.624.4-1.317 0-2.376.178-2.376.4 0 .222-1.059.4-2.376.4-1.307 0-2.488.18-2.624.4-.136.22-1.317.4-2.624.4-1.317 0-2.376.178-2.376.4 0 .222-1.067.4-2.4.4s-2.4.178-2.4.4c0 .225-1.125.4-2.576.4-1.417 0-2.688.18-2.824.4-.558.902-1 .294-1-1.376 0-.977-.18-1.888-.4-2.024-.234-.145-.4-2.463-.4-5.6 0-3.137.166-5.455.4-5.6.22-.136.4-1.047.4-2.024 0-.977.18-1.776.4-1.776.22 0 .4-.529.4-1.176 0-.647.18-1.288.4-1.424.22-.136.4-.687.4-1.224 0-.537.18-.976.4-.976.22 0 .4-.29.4-.646 0-.713 1.625-3.876 2.1-4.087.165-.074.3-.389.3-.7 0-.312.18-.567.4-.567.22 0 .4-.225.401-.5 0-.275.54-1.13 1.199-1.9s1.199-1.541 1.199-1.713c.001-.173.586-.902 1.301-1.621.715-.72 1.75-1.882 2.3-2.583.55-.702 1.198-1.277 1.441-1.279.242-.002.982-.521 1.643-1.154 1.329-1.269 9.821-5.65 10.954-5.65.393 0 .826-.18.962-.4.136-.22.766-.4 1.4-.4.634 0 1.264-.18 1.4-.4.136-.22 1.137-.4 2.224-.4 1.087 0 1.976-.18 1.976-.4 0-.244 1.867-.4 4.8-.4s4.8.156 4.8.4M284 60.8c0 .22.9.4 2 .4s2 .18 2 .4c0 .22.54.4 1.2.4.66 0 1.2.18 1.2.4 0 .22.45.4 1 .4s1 .18 1 .4c0 .22.36.4.8.4.44 0 .8.18.8.4 0 .22.27.4.6.4.33 0 .6.18.6.4 0 .22.27.4.6.4.33 0 .6.15.6.332 0 .183.492.588 1.093.9 1.29.671 6.107 5.371 6.107 5.961 0 .224.18.407.4.407.22 0 .4.27.4.6 0 .33.18.6.4.6.22 0 .4.27.4.6 0 .33.18.6.4.6.22 0 .4.36.4.8 0 .44.18.8.4.8.22 0 .4.36.4.8 0 .44.18.8.4.8.22 0 .4.36.4.8 0 .44.148.8.328.8.181 0 .499 1.44.707 3.2l.379 3.2h-2.083c-1.146 0-2.195.18-2.331.4-.136.22-1.317.4-2.624.4-1.317 0-2.376.178-2.376.4 0 .222-1.067.4-2.4.4s-2.4.178-2.4.4c0 .226-1.133.4-2.6.4s-2.6.174-2.6.4c0 .222-1.067.4-2.4.4s-2.4.178-2.4.4c0 .22-.9.4-2 .4-1.733 0-2-.107-2-.8 0-.44-.18-.8-.4-.8-.22 0-.4-.72-.4-1.6 0-.88-.18-1.6-.4-1.6-.22 0-.4-.72-.4-1.6 0-.88-.18-1.6-.4-1.6-.22 0-.4-.619-.4-1.376 0-.757-.18-1.488-.4-1.624-.22-.136-.4-.867-.4-1.624 0-.757-.18-1.376-.4-1.376-.22 0-.4-.72-.4-1.6 0-.88-.18-1.6-.4-1.6-.22 0-.4-.72-.4-1.6 0-.88-.18-1.6-.4-1.6-.22 0-.4-.592-.4-1.316 0-.724-.274-2.369-.609-3.655-.858-3.294-.601-3.829 1.836-3.829 1.085 0 1.973-.18 1.973-.4 0-.229 1.2-.4 2.8-.4 1.6 0 2.8.171 2.8.4m-28.253 1.115c.209.337-4.022 4.885-4.544 4.885-.172 0-.433-.808-.582-1.796-.148-.988-.303-1.933-.345-2.1-.166-.663 5.086-1.612 5.471-.989M242.973 64.9c.104.495.568 3.24 1.03 6.1.463 2.86 1.107 5.608 1.432 6.107.527.807.516 1.136-.099 3-.543 1.643-.703 3.661-.745 9.391-.03 4.015-.172 7.416-.315 7.559-.26.26-2.067.598-7.228 1.353-6.037.882-7.556 2.577-7.848 8.758l-.2 4.232-6.4.272c-6.744.286-28.451.896-54.2 1.524-8.47.207-17.309.49-19.642.63-5.133.307-4.697.93-5.191-7.426-.201-3.41-.541-8.9-.756-12.2-1.095-16.828-1.384-14.956 2.389-15.471 1.996-.272 4.043-.58 9.161-1.377 2.079-.323 2.839.359 2.839 2.547 0 .741.166 2.101.369 3.024.204.922.58 2.982.837 4.576 1.21 7.517 8.246 5.809 7.206-1.75-.586-4.257-1.107-7.443-1.416-8.645-.347-1.354-.868-1.193 8.704-2.684 1.485-.231 3.825-.599 5.2-.817 3.386-.539 23.36-3.623 31.1-4.803 1.65-.251 3.99-.611 5.2-.8 1.21-.189 3.55-.549 5.2-.8a684.3 684.3 0 0 0 5.4-.846 432.347 432.347 0 0 1 10.164-1.538c1.63-.225 3.055-.501 3.166-.613.721-.721 4.464-.159 4.643.697M23.6 65.587c3.513.344 6.795.659 16.8 1.613 4.209.401 10.475.984 16.656 1.55 6.218.569 8.494 2.115 8.832 6.001.476 5.467-3.184 7.167-13.061 6.067-1.885-.21-5.587-.577-8.227-.815-2.64-.239-6.6-.606-8.8-.815-2.2-.209-8.23-.751-13.4-1.205-11.928-1.046-12.369-1.187-14.052-4.486-1.457-2.856-.54-5.746 2.489-7.839 1.48-1.024 2.943-1.032 12.763-.071m242.219.074c.278.874 2.329 8.817 3.033 11.739.211.88.565 2.32.785 3.2l.8 3.2.8 3.2c1.514 6.052 1.573 5.815-1.536 6.265-1.266.183-5.602.842-9.637 1.464l-7.337 1.132-.39-1.026c-1.319-3.47-.605-11.338 1.51-16.635 2.668-6.68 11.047-15.456 11.972-12.539M328.388 92.9c.784 1.903 3.727 14.623 3.513 15.181-.189.492-2.303.633-12.963.866-7.006.153-18.768.444-26.138.648-7.37.204-18.924.497-25.676.651l-12.277.281-.228-.963c-1.434-6.049-1.245-6.399 3.834-7.135a439.68 439.68 0 0 0 5.547-.846c1.43-.23 3.77-.596 5.2-.813 1.43-.217 3.725-.569 5.1-.782 1.375-.214 3.67-.568 5.1-.788 1.43-.22 3.725-.574 5.1-.788 1.375-.213 3.76-.578 5.3-.812 4.307-.653 7.336-1.123 10.4-1.611 6.172-.983 7.676-1.214 9.455-1.447l1.856-.243.463 2.951c.922 5.867 1.226 6.762 2.574 7.584 3.671 2.238 6.339-.558 5.486-5.748-.26-1.587-.51-3.596-.554-4.464l-.08-1.577 2.6-.465c4.449-.796 5.959-.72 6.388.32m-82.162 12.342c.15.243.364 1.576.475 2.962l.203 2.521-2.552.267c-1.404.147-3.632.209-4.952.137L237 111l-.119-2.478-.118-2.479 1.318-.244c5.667-1.048 7.753-1.191 8.145-.557M363.6 116.4c0 .22.278.4.618.4.784 0 2.582 1.775 2.582 2.548 0 .322.181.646.403.72.266.088.368 10.07.3 29.533L367.4 179l-1.1-2.179c-.605-1.198-1.1-2.503-1.1-2.9 0-.396-.18-.721-.4-.721-.22 0-.4-.36-.4-.8 0-.44-.18-.8-.4-.8-.22 0-.4-.36-.4-.8 0-.44-.18-.8-.4-.8-.22 0-.4-.54-.4-1.2 0-.66-.18-1.2-.4-1.2-.22 0-.4-.36-.4-.8 0-.44-.18-.8-.4-.8-.22 0-.4-.36-.4-.8 0-.44-.18-.8-.4-.8-.22 0-.4-.45-.4-1s-.18-1-.4-1c-.22 0-.4-.265-.4-.588 0-.323-.341-1.194-.757-1.936-.417-.741-1.086-2.457-1.489-3.812-.402-1.355-.871-2.464-1.043-2.464-.171 0-.311-.36-.311-.8 0-.44-.147-.8-.328-.8-.18 0-.572-.9-.872-2-.3-1.1-.692-2-.872-2-.181 0-.328-.36-.328-.8 0-.44-.18-.8-.4-.8-.22 0-.4-.349-.4-.776 0-.427-.18-.888-.4-1.024-.22-.136-.4-.597-.4-1.024 0-.427-.18-.776-.4-.776-.22 0-.4-.36-.4-.8 0-.44-.18-.8-.4-.8-.22 0-.4-.349-.4-.776 0-.427-.18-.888-.4-1.024-.22-.136-.4-.687-.4-1.224 0-.537-.18-.976-.4-.976-.22 0-.4-.36-.4-.8 0-.44-.18-.8-.4-.8-.22 0-.4-.36-.4-.8 0-.44-.18-.8-.4-.8-.22 0-.4-.54-.4-1.2 0-.66-.18-1.2-.4-1.2-.22 0-.4-.72-.4-1.6 0-.88-.18-1.6-.4-1.6-.22 0-.4-.72-.4-1.6 0-.88-.18-1.6-.4-1.6-.22 0-.4-.709-.4-1.576 0-.867-.18-1.688-.4-1.824-.22-.136-.4-.856-.4-1.6 0-.744-.18-1.464-.4-1.6-.22-.136-.4-.597-.4-1.024 0-.739.338-.776 7-.776 4.4 0 7-.149 7-.4 0-.233 1.333-.4 3.2-.4 1.867 0 3.2.167 3.2.4m-32.005 2.1c.491 1.155 1.323 3.05 1.849 4.212.526 1.161.956 2.191.956 2.288 0 .097.45 1.172 1 2.388l1.954 4.323c1.457 3.224 2.012 5.054 4.032 13.289 1.026 4.18 4.913 19.854 8.639 34.831 7.162 28.787 7.195 28.949 6.029 30.115-.652.652-7.044 2.008-7.455 1.582-.119-.123-1.106-2.271-2.999-6.528-.489-1.1-1.319-2.95-1.845-4.112-.525-1.161-.955-2.191-.955-2.288 0-.097-.429-1.127-.954-2.288a948.23 948.23 0 0 1-3.647-8.312c-2.889-6.653-3.749-8.607-5.244-11.912-.525-1.161-.955-2.191-.955-2.288 0-.097-.45-1.172-1-2.388l-2-4.424c-.55-1.216-1-2.291-1-2.388 0-.097-.43-1.127-.955-2.288-2.097-4.637-5.292-11.947-8.528-19.512a562.269 562.269 0 0 0-2.557-5.9 571.992 571.992 0 0 1-3.002-6.8l-1.116-2.6a831.447 831.447 0 0 0-3.253-7.418c-1.635-3.694-2.157-3.537 12.062-3.622l10.05-.06.894 2.1m-31.733.2c.341.825.981 2.31 1.422 3.3.44.99 1.051 2.385 1.358 3.1l1.116 2.6a571.992 571.992 0 0 0 3.002 6.8c.418.935 1.569 3.59 2.557 5.9 3.236 7.565 6.431 14.875 8.528 19.512.525 1.161.955 2.191.955 2.288 0 .097.45 1.172 1 2.388l2 4.424c.55 1.216 1 2.291 1 2.388 0 .097.43 1.127.955 2.288 1.495 3.305 2.355 5.259 5.244 11.912a948.23 948.23 0 0 0 3.647 8.312c.525 1.161.954 2.191.954 2.288 0 .097.43 1.127.955 2.288a908.873 908.873 0 0 1 1.846 4.112c.489 1.1 1.212 2.72 1.605 3.6 2.064 4.622 2.74 6.645 2.274 6.81-.545.193-8.076 1.466-12.88 2.178-1.76.261-4.064.641-5.12.843-3.144.604-3.459.518-4.142-1.131a153.99 153.99 0 0 0-1.379-3.2c-.418-.935-1.139-2.555-1.604-3.6a742.656 742.656 0 0 0-1.8-4.012c-.525-1.161-.955-2.191-.955-2.288 0-.097-.43-1.127-.955-2.288-1.495-3.305-2.355-5.259-5.244-11.912a948.23 948.23 0 0 0-3.647-8.312c-.525-1.161-.954-2.191-.954-2.288 0-.097-.43-1.127-.955-2.288a759.13 759.13 0 0 1-1.755-3.912l-1.687-3.8c-.488-1.1-1.138-2.585-1.445-3.3l-1.116-2.6c-.307-.715-.916-2.11-1.354-3.1-.438-.99-2.087-4.77-3.665-8.4-1.578-3.63-3.11-7.14-3.404-7.8a666.532 666.532 0 0 1-3.419-7.8 486.086 486.086 0 0 0-3.845-8.712c-.525-1.161-.955-2.191-.955-2.288 0-.097-.463-1.189-1.029-2.426-.566-1.237-.943-2.335-.838-2.44.278-.278 10.752-.805 17.387-.874l5.721-.06.621 1.5m-31.518 1a546.458 546.458 0 0 1 3.098 7l1.116 2.6c.307.715.917 2.11 1.357 3.1.439.99 2.548 5.85 4.685 10.8 2.137 4.95 4.246 9.81 4.685 10.8.44.99 1.05 2.385 1.357 3.1l1.116 2.6a491.13 491.13 0 0 0 3.287 7.412c.525 1.161.955 2.191.955 2.288 0 .097.429 1.127.954 2.288a948.23 948.23 0 0 1 3.647 8.312c1.481 3.41 3.01 6.92 3.399 7.8.388.88 1.288 2.95 2 4.6.712 1.65 1.652 3.81 2.089 4.8.438.99 1.046 2.385 1.353 3.1l1.116 2.6c.307.715.917 2.11 1.355 3.1 5.203 11.74 5.189 11.672 2.482 12.053-1.644.231-3.309.483-10.195 1.542-1.32.204-3.66.56-5.2.792-1.54.232-3.012.499-3.271.594-.677.247-1.079-.367-2.741-4.181-.815-1.87-1.911-4.35-2.435-5.512-.524-1.161-.953-2.191-.953-2.288 0-.097-.43-1.127-.955-2.288a808.169 808.169 0 0 1-1.845-4.112c-.489-1.1-1.319-2.95-1.845-4.112-.525-1.161-.955-2.191-.955-2.288 0-.097-.429-1.127-.953-2.288-1.366-3.026-3.471-7.842-7.131-16.312a1648.49 1648.49 0 0 0-3.999-9.2c-.441-.99-1.052-2.385-1.359-3.1l-1.116-2.6a491.13 491.13 0 0 0-3.287-7.412c-.525-1.161-.955-2.191-.955-2.288 0-.097-.429-1.127-.954-2.288a925.85 925.85 0 0 1-3.646-8.312 925.85 925.85 0 0 0-3.646-8.312c-.525-1.161-.954-2.191-.954-2.288 0-.097-.43-1.127-.955-2.288a808.169 808.169 0 0 1-1.845-4.112c-.489-1.1-1.329-2.971-1.866-4.159-1.405-3.105-2.084-2.962 14.956-3.157l7.29-.084.764 1.7m-38.558 0c.11.495.394 4.05.63 7.9 1.421 23.198 1.926 30.854 2.229 33.812.382 3.72-.349 3.03-2.76-2.612a258.98 258.98 0 0 0-1.642-3.712c-.574-1.271-1.043-2.391-1.043-2.488 0-.097-.43-1.127-.955-2.288-1.443-3.189-2.362-5.283-4.44-10.112-1.042-2.42-2.213-5.12-2.602-6-.39-.88-1.291-2.95-2.003-4.6-1.934-4.484-2.815-6.473-3.438-7.761-1.2-2.482-1.569-2.31 5.638-2.626 11.019-.484 10.16-.524 10.386.487m-24.564 1.2c.481 1.204.949 2.28 3.087 7.1.439.99 2.009 4.59 3.49 8a948.23 948.23 0 0 0 3.647 8.312c.525 1.161.954 2.191.954 2.288 0 .097.43 1.127.955 2.288 1.7 3.758 3.13 7.008 4.45 10.112.477 1.122 1.101 2.537 2.95 6.7 1.283 2.886 4.841 11.087 6.725 15.5.986 2.31 2.027 4.74 2.313 5.4.483 1.114.771 4.283 1.82 20 .967 14.483 1.348 19.406 1.67 21.59.104.701-.295.861-3.536 1.416-4.85.83-4.128 1.344-6.901-4.906l-1.554-3.5c-.439-.99-2.01-4.59-3.491-8a948.23 948.23 0 0 0-3.647-8.312c-.525-1.161-.954-2.191-.954-2.288 0-.097-.43-1.127-.955-2.288a808.169 808.169 0 0 1-1.845-4.112c-.489-1.1-1.319-2.95-1.845-4.112-.525-1.161-.955-2.191-.955-2.288 0-.097-.43-1.127-.955-2.288-1.49-3.295-2.351-5.249-5.245-11.912-2.894-6.663-3.755-8.617-5.245-11.912-.525-1.161-.955-2.191-.955-2.288 0-.097-.43-1.127-.955-2.288A808.169 808.169 0 0 1 196.4 155c-.489-1.1-1.319-2.95-1.845-4.112-.525-1.161-.955-2.191-.955-2.288 0-.097-.43-1.127-.955-2.288-1.49-3.295-2.351-5.249-5.245-11.912-1.481-3.41-3.051-7.01-3.489-8-3.21-7.263-5.287-6.366 15.54-6.713l5.252-.087.519 1.3m-31.545 1.1c.392.77 2.611 5.81 4.932 11.2s4.464 10.34 4.763 11a479.463 479.463 0 0 1 2.87 6.5l1.116 2.6a491.13 491.13 0 0 0 3.287 7.412c.525 1.161.955 2.191.955 2.288 0 .097.429 1.127.954 2.288a948.23 948.23 0 0 1 3.647 8.312c2.889 6.653 3.749 8.607 5.244 11.912.525 1.161.955 2.191.955 2.288 0 .097.43 1.127.955 2.288a486.086 486.086 0 0 1 3.845 8.712c.712 1.65 1.612 3.72 2 4.6.389.88 1.919 4.39 3.4 7.8 1.481 3.41 3.011 6.92 3.4 7.8.388.88 1.288 2.95 1.999 4.6.712 1.65 1.737 3.982 2.279 5.182 1.112 2.461.754 3.218-1.524 3.218-.601 0-1.962.171-3.023.381a129.12 129.12 0 0 1-4.931.821c-1.65.242-3.9.599-5 .793-1.1.193-3.01.463-4.244.6-2.569.285-2.117.884-5.798-7.695l-1.116-2.6c-.307-.715-.917-2.11-1.357-3.1-.439-.99-2.548-5.85-4.685-10.8-3.881-8.989-4.647-10.737-6.445-14.712-.525-1.161-.955-2.191-.955-2.288 0-.097-.469-1.217-1.043-2.488a263.862 263.862 0 0 1-1.6-3.612 410.198 410.198 0 0 0-2.47-5.7 1874.393 1874.393 0 0 1-6.77-15.6c-.988-2.31-2.158-5.01-2.599-6-.441-.99-1.053-2.385-1.36-3.1l-1.116-2.6a491.13 491.13 0 0 0-3.287-7.412c-.525-1.161-.955-2.191-.955-2.288 0-.097-.429-1.127-.954-2.288a948.23 948.23 0 0 1-3.647-8.312c-1.481-3.41-3.012-6.92-3.404-7.8-1.45-3.257-2.001-4.727-1.836-4.893.201-.2 16.968-.818 20.423-.752 2.303.043 2.406.092 3.095 1.445m-37.277 5c0 2.8.157 4.6.4 4.6.248 0 .4 2.2.4 5.8 0 3.6.152 5.8.4 5.8.249 0 .4 2.259.4 5.976 0 3.553.162 6.077.4 6.224.231.142.4 2.271.4 5.024 0 2.917-.156 4.776-.4 4.776-.22 0-.4-.36-.4-.8 0-.44-.18-.8-.4-.8-.22 0-.4-.343-.4-.762 0-.816-1.601-4.15-2.1-4.371-.165-.074-.3-.558-.3-1.077 0-.518-.18-1.054-.4-1.19-.22-.136-.4-.597-.4-1.024 0-.427-.18-.776-.4-.776-.22 0-.4-.36-.4-.8 0-.44-.18-.8-.4-.8-.22 0-.4-.349-.4-.776 0-.427-.18-.888-.4-1.024-.22-.136-.4-.687-.4-1.224 0-.537-.18-.976-.4-.976-.22 0-.4-.36-.4-.8 0-.44-.18-.8-.4-.8-.22 0-.4-.36-.4-.8 0-.44-.18-.8-.4-.8-.22 0-.4-.45-.4-1s-.18-1-.4-1c-.22 0-.4-.36-.4-.8 0-.44-.18-.8-.4-.8-.22 0-.4-.36-.4-.8 0-.44-.18-.8-.4-.8-.22 0-.4-.54-.4-1.2 0-.66-.18-1.2-.4-1.2-.22 0-.4-.36-.4-.8 0-.44-.18-.8-.4-.8-.22 0-.401-.315-.402-.7-.002-.385-.272-1.216-.6-1.846-.329-.63-.598-1.316-.598-1.525 0-.344-1.931-4.723-2.832-6.424-.202-.382-.368-.967-.368-1.3 0-.333-.18-.605-.4-.605-.22 0-.4-.18-.4-.4 0-.22.765-.403 1.7-.406.935-.003 1.97-.181 2.3-.394.33-.213 3.255-.391 6.5-.394l5.9-.006v4.6m-26.357-2c.292.99.672 1.8.844 1.8.172 0 .313.36.313.8 0 .44.147.8.328.8.18 0 .572.9.872 2 .3 1.1.692 2 .872 2 .181 0 .328.36.328.8 0 .44.18.8.4.8.22 0 .4.272.4.605 0 .333.159.918.354 1.3 1.822 3.573 2.846 5.931 2.846 6.551 0 .409.18.744.4.744.22 0 .4.36.4.8 0 .44.18.8.4.8.22 0 .4.36.4.8 0 .44.18.8.4.8.22 0 .4.439.4.976 0 .537.18 1.088.4 1.224.22.136.4.597.4 1.024 0 .427.18.776.4.776.22 0 .4.36.4.8 0 .44.18.8.4.8.22 0 .4.272.4.605 0 .333.164.918.365 1.3 1.008 1.917 2.435 5.231 2.435 5.654 0 .264.36 1.225.8 2.135.44.911.8 1.892.8 2.181 0 .289.18.525.4.525.22 0 .4.279.4.619 0 .341.36 1.365.8 2.275.44.911.8 1.892.8 2.181 0 .289.18.525.4.525.22 0 .4.349.4.776 0 .427.18.888.4 1.024.22.136.4.597.4 1.024 0 .427.18.776.4.776.22 0 .4.36.4.8 0 .44.18.8.4.8.22 0 .4.36.4.8 0 .44.18.8.4.8.22 0 .4.54.4 1.2 0 .66.18 1.2.4 1.2.22 0 .4.36.4.8 0 .44.18.8.4.8.22 0 .4.36.4.8 0 .44.18.8.4.8.22 0 .4.439.4.976 0 .537.18 1.088.4 1.224.22.136.4.597.4 1.024 0 .427.18.776.4.776.22 0 .4.36.4.8 0 .44.18.8.4.8.22 0 .4.45.4 1s.18 1 .4 1c.22 0 .4.36.4.8 0 .44.18.8.4.8.22 0 .4.36.4.8 0 .44.18.8.4.8.22 0 .4.349.4.776 0 .427.18.888.4 1.024.221.136.4 1.93.4 4.002 0 2.065.186 5.969.413 8.676.227 2.707.599 8.432.826 12.722 1.024 19.338 1.063 19.725 2.225 22.317.74 1.653 5.034 6.083 5.894 6.083.353 0 .642.18.642.4 0 .22.72.4 1.6.4.88 0 1.6.18 1.6.4 0 .22.99.4 2.2.4 1.21 0 2.2-.18 2.2-.4 0-.226 1.143-.4 2.629-.4 2.805 0 3.771.499 3.771 1.948 0 .443.18.916.4 1.052 1.336.826.361 1.8-1.8 1.8-1.21 0-2.2.18-2.2.4 0 .246-2 .4-5.2.4s-5.2-.154-5.2-.4c0-.22-.54-.4-1.2-.4-.66 0-1.2-.18-1.2-.4 0-.22-.36-.4-.8-.4-.44 0-.8-.18-.8-.4 0-.22-.36-.4-.8-.4-.44 0-.8-.15-.8-.332 0-.183-.495-.588-1.1-.9-2.014-1.039-6.5-6.662-6.5-8.146 0-.342-.18-.622-.4-.622-.22 0-.4-.36-.4-.8 0-.44-.18-.8-.4-.8-.22 0-.4-.36-.4-.8 0-.44-.18-.8-.4-.8-.22 0-.4-.54-.4-1.2 0-.66-.18-1.2-.4-1.2-.22 0-.4-.36-.4-.8 0-.44-.18-.8-.4-.8-.22 0-.4-.36-.4-.8 0-.44-.18-.8-.4-.8-.22 0-.4-.439-.4-.976 0-.537-.18-1.088-.4-1.224-.22-.136-.4-.597-.4-1.024 0-.427-.18-.776-.4-.776-.22 0-.4-.36-.4-.8 0-.44-.18-.8-.4-.8-.22 0-.4-.45-.4-1s-.18-1-.4-1c-.22 0-.4-.36-.4-.8 0-.44-.18-.8-.4-.8-.22 0-.4-.36-.4-.8 0-.44-.18-.8-.4-.8-.22 0-.4-.349-.4-.776 0-.427-.18-.888-.4-1.024-.22-.136-.4-.687-.4-1.224 0-.537-.18-.976-.4-.976-.22 0-.4-.36-.4-.8 0-.44-.18-.8-.4-.8-.22 0-.4-.36-.4-.8 0-.44-.18-.8-.4-.8-.22 0-.4-.452-.4-1.005 0-.553-.173-1.318-.385-1.7-.858-1.549-2.415-5.356-2.415-5.907 0-.323-.18-.588-.4-.588-.22 0-.4-.36-.4-.8 0-.44-.147-.8-.328-.8-.18 0-.572-.9-.872-2-.3-1.1-.692-2-.872-2-.181 0-.328-.36-.328-.8 0-.44-.18-.8-.4-.8-.22 0-.4-.272-.4-.605 0-.333-.18-.963-.4-1.4l-.8-1.59c-.22-.437-.4-1.067-.4-1.4 0-.333-.18-.605-.4-.605-.22 0-.4-.36-.4-.8 0-.44-.18-.8-.4-.8-.22 0-.4-.45-.4-1s-.18-1-.4-1c-.22 0-.4-.36-.4-.8 0-.44-.18-.8-.4-.8-.22 0-.4-.36-.4-.8 0-.44-.18-.8-.4-.8-.22 0-.4-.54-.4-1.2 0-.66-.18-1.2-.4-1.2-.22 0-.4-.36-.4-.8 0-.44-.18-.8-.4-.8-.22 0-.4-.36-.4-.8 0-.44-.18-.8-.4-.8-.22 0-.4-.45-.4-1s-.18-1-.4-1c-.22 0-.4-.45-.4-1s-.18-1-.4-1c-.22 0-.4-.36-.4-.8 0-.44-.135-.8-.3-.8-.165 0-.653-1.17-1.085-2.6-.432-1.43-.927-2.6-1.1-2.6-.173 0-.315-.36-.315-.8 0-.44-.18-.8-.4-.8-.22 0-.4-.439-.4-.976 0-.537-.18-1.088-.4-1.224-.22-.136-.4-.597-.4-1.024 0-.427-.18-.776-.4-.776-.22 0-.4-.36-.4-.8 0-.44-.18-.8-.4-.8-.22 0-.4-.45-.4-1s-.18-1-.4-1c-.22 0-.4-.234-.4-.52 0-.736-.941-2.673-1.3-2.677-.165-.002-.3-.442-.3-.979 0-.537-.18-1.088-.4-1.224-.22-.136-.4-.597-.4-1.024 0-.427-.18-.776-.4-.776-.22 0-.4-.36-.4-.8 0-.44-.18-.8-.4-.8-.22 0-.4-.349-.4-.776 0-.427-.18-.888-.4-1.024-.22-.136-.4-.687-.4-1.224 0-.537-.18-.976-.4-.976-.22 0-.4-.36-.4-.8 0-.44-.18-.8-.4-.8-.22 0-.4-.36-.4-.8 0-.44-.18-.8-.4-.8-.22 0-.4-.45-.4-1s-.18-1-.4-1c-.22 0-.4-.36-.4-.8 0-.44-.18-.8-.4-.8-.22 0-.4-.36-.4-.8 0-.44-.18-.8-.4-.8-.22 0-.4-.54-.4-1.2 0-.66-.18-1.2-.4-1.2-.22 0-.4-.288-.4-.64 0-.351-.288-1.296-.641-2.1a61.75 61.75 0 0 1-.943-2.26c-.166-.44-.688-1.582-1.159-2.538-.471-.956-.857-1.991-.857-2.3 0-.309-.18-.562-.4-.562-.22 0-.4-.45-.4-1s-.18-1-.4-1c-.22 0-.4-.36-.4-.8 0-.754.269-.8 4.7-.806 2.585-.003 4.97-.181 5.3-.394.33-.213 3.415-.391 6.856-.394l6.256-.006.531 1.8m130.896 4.6c.54 1.21 2.369 5.44 4.065 9.4 3.058 7.143 3.8 8.842 5.641 12.912.525 1.161.955 2.191.955 2.288 0 .097.45 1.172 1 2.388l2 4.424c.55 1.216 1 2.291 1 2.388 0 .097.43 1.127.955 2.288 2.097 4.637 5.292 11.947 8.528 19.512a420.217 420.217 0 0 0 4.362 9.912c.525 1.161.955 2.191.955 2.288 0 .097.45 1.172 1 2.388l2 4.424c.55 1.216 1 2.292 1 2.39 0 .098.509 1.307 1.131 2.688 5.941 13.178 5.963 13.278 3.002 13.635-1.063.128-3.103.408-4.533.622-14.857 2.226-15.6 2.266-15.6.843 0-.255-6.884-16.36-9.014-21.09-.322-.715-.856-1.93-1.186-2.7a466.278 466.278 0 0 0-2.51-5.8c-4.036-9.142-3.85-8.345-4.491-19.2-.215-3.63-.571-9.3-.791-12.6-1.629-24.403-2.39-37.905-2.157-38.283.266-.43.53.049 2.688 4.883m-92.464 7.419a967.276 967.276 0 0 0 7.77 17.693c.525 1.161.955 2.191.955 2.288 0 .097.428 1.127.952 2.288.524 1.162 2.524 5.712 4.445 10.112 1.922 4.4 3.923 8.95 4.448 10.112.525 1.161.955 2.191.955 2.288 0 .097.43 1.127.955 2.288a1003.2 1003.2 0 0 1 3.398 7.612c.414.935 1.335 3.05 2.047 4.7.712 1.65 1.612 3.72 2 4.6.389.88 1.919 4.39 3.4 7.8 2.894 6.663 3.755 8.617 5.245 11.912.525 1.161.955 2.191.955 2.288 0 .097.471 1.217 1.046 2.488a794.934 794.934 0 0 1 2.021 4.512c.537 1.21 1.305 2.917 1.707 3.792.958 2.089.727 2.52-1.509 2.816-1.026.136-2.765.405-3.865.598-1.1.193-3.35.552-5 .798-1.65.245-3.99.618-5.2.828-1.21.21-2.984.424-3.943.475l-1.743.093-1.576-3.6a584.232 584.232 0 0 0-3.695-8.312c-.574-1.271-1.043-2.391-1.043-2.488 0-.097-.43-1.127-.955-2.288-2.031-4.49-4.565-10.273-8.726-19.912-1.756-4.07-3.427-7.94-3.713-8.6-.491-1.135-.811-4.728-1.804-20.2-.233-3.63-.594-9.21-.802-12.4-.208-3.19-.566-8.77-.794-12.4-.229-3.63-.612-8.972-.853-11.871-.629-7.596-.207-7.641 2.922-.31M362.8 192.376c0 .427.18.888.4 1.024.22.136.4.687.4 1.224 0 .537.18.976.4.976.22 0 .4.36.4.8 0 .44.18.8.4.8.22 0 .4.36.4.8 0 .44.18.8.4.8.22 0 .4.439.4.976 0 .537.18 1.088.4 1.224.22.136.4.597.4 1.024 0 .427.18.776.4.776.249 0 .4 2.333.4 6.2s-.151 6.2-.4 6.2c-.22 0-.4.455-.4 1.011 0 1.009-3.112 4.589-3.989 4.589a.407.407 0 0 0-.411.4c0 .22-.54.4-1.2.4-.66 0-1.2.18-1.2.4 0 .222-1.067.4-2.4.4s-2.4.178-2.4.4c0 .22-.18.4-.4.4-.22 0-.4-.414-.4-.92s-.204-1.124-.454-1.374c-.76-.76.585-1.706 2.425-1.706.896 0 1.629-.157 1.629-.35 0-.193.519-.454 1.154-.581 1.311-.262 5.246-3.894 5.246-4.843 0-.344.18-.626.4-.626.244 0 .4-1.859.4-4.776 0-2.753-.169-4.882-.4-5.024-.22-.136-.4-.856-.4-1.6 0-.744-.18-1.464-.4-1.6-.22-.136-.4-.867-.4-1.624 0-.757-.18-1.376-.4-1.376-.22 0-.4-.72-.4-1.6 0-.88-.18-1.6-.4-1.6-.22 0-.4-.45-.4-1s.18-1 .4-1c.22 0 .4.349.4.776M245.598 213.5c1.496 3.453 2.69 6.16 3.967 8.999 1.947 4.328 1.922 4.423-1.235 4.834-3.576.466-4.564-2.487-4.697-14.033-.042-3.68.3-3.645 1.965.2m-93.242 5.496c.464.987.844 1.883.844 1.99 0 .107.54 1.373 1.2 2.814.66 1.441 1.2 2.684 1.2 2.761 0 .078.266.748.592 1.49 6.028 13.734 5.888 12.931 2.333 13.376-5.471.683-6.147-.611-6.906-13.227-.211-3.52-.507-7.435-.657-8.7-.334-2.819.213-3.017 1.394-.504m191.73 4.152c.925 1.66 1.264 1.464-3.486 2.011-3.801.438-5.371.663-11.4 1.637-4.53.732-4.525.733-4.979-.596-.226-.66-.588-1.325-.805-1.478-.669-.473.642-.73 6.984-1.37 1.21-.122 2.371-.387 2.58-.587.209-.201 1.413-.365 2.676-.365 1.263 0 2.413-.188 2.555-.418.69-1.116 5.09-.243 5.875 1.166m-30.186 3.935c.945 2.035-.136 2.917-3.58 2.917-1.056 0-1.92.18-1.92.4 0 .222-1.067.4-2.4.4s-2.4.178-2.4.4c0 .222-1.067.4-2.4.4s-2.4.178-2.4.4c0 .22-.9.4-2 .4-1.511 0-2-.147-2-.6 0-.33-.18-.6-.4-.6-.602 0-.481-1.577.171-2.229.359-.358 1.402-.571 2.8-.571 1.226 0 2.229-.18 2.229-.4 0-.222 1.059-.4 2.376-.4 1.307 0 2.488-.18 2.624-.4.136-.22 1.317-.4 2.624-.4 1.317 0 2.376-.178 2.376-.4 0-1.023 3.787-.421 4.3.683M284 231.6c0 .44.18.8.4.8.22 0 .4.283.4.629 0 1.162-1.082 1.771-3.148 1.771-1.103 0-2.116.18-2.252.4-.136.22-1.227.4-2.424.4-1.197 0-2.176.18-2.176.4 0 .222-1.067.4-2.4.4s-2.4.178-2.4.4c0 .22-1.003.4-2.229.4-2.293 0-3.371-.566-3.371-1.771 0-.346-.18-.629-.4-.629-.22 0-.4-.36-.4-.8 0-.717.267-.8 2.576-.8 1.417 0 2.688-.18 2.824-.4.136-.22 1.227-.4 2.424-.4 1.197 0 2.176-.18 2.176-.4 0-.222 1.059-.4 2.376-.4 1.307 0 2.488-.18 2.624-.4.523-.846 5.4-.485 5.4.4m-29.6 4.8c0 .44.18.8.4.8.22 0 .4.54.4 1.2v1.2h-2.4c-1.333 0-2.4.178-2.4.4 0 .222-1.067.4-2.4.4s-2.4.178-2.4.4c0 .22-.801.4-1.78.4s-2.644.167-3.7.371c-4.27.824-4.52.836-4.52.219 0-.324-.18-.59-.4-.59-.22 0-.4-.36-.4-.8 0-.44-.18-.8-.4-.8-.22 0-.4-.36-.4-.8 0-.702.267-.8 2.176-.8 1.197 0 2.288-.18 2.424-.4.136-.22 1.306-.4 2.6-.4s2.464-.18 2.6-.4c.136-.22 1.317-.4 2.624-.4 1.317 0 2.376-.178 2.376-.4 0-.229 1.2-.4 2.8-.4 2.533 0 2.8.076 2.8.8m63.652 2.782c2.141 1.765 2.693 4.093 1.549 6.527-1.295 2.755-2.414 3.285-9.1 4.307-1.486.227-3.781.594-5.101.816-1.32.222-3.57.59-5 .817-1.43.228-3.5.566-4.6.751-1.1.185-3.17.523-4.6.751-1.43.227-3.77.61-5.2.849-1.43.239-3.77.622-5.2.849-1.43.228-3.5.566-4.6.751-1.1.185-3.26.545-4.8.8s-3.7.615-4.8.8c-1.1.185-3.26.545-4.8.8s-3.7.615-4.8.8c-1.1.185-3.17.517-4.6.737-1.43.221-3.23.513-4 .651-.77.137-2.435.421-3.7.63-1.265.21-3.335.561-4.6.78-2.49.432-16.833 2.748-24.9 4.021-2.75.434-5.99.961-7.2 1.17-1.21.21-3.46.58-5 .823s-3.7.598-4.8.788c-1.1.19-3.26.55-4.8.799-4.076.661-6.704 1.237-7.495 1.644-.382.196-.969.357-1.304.357-.549 0-2.079.615-5.601 2.25-7.926 3.681-15.042 11.304-24 25.707-.22.354-.506.733-.636.843-.842.715-7.964 11.885-7.964 12.491 0 1.24 1.074 2.923 2.189 3.431.804.366 23.184.478 95.771.478h94.722l1.359.914c3.402 2.289 3.511 6.756.226 9.262l-1.343 1.024H238.911c-109.407 0-101.629.164-104.441-2.202-3.918-3.297-4.816-9.155-2.08-13.582 1.144-1.85 8.241-12.174 8.999-13.089.306-.37 1.858-2.62 3.449-5 14.026-20.983 20.78-27.472 33.962-32.629.55-.215 1.313-.55 1.695-.745.382-.194 1.136-.353 1.676-.353s1.078-.156 1.196-.347c.118-.191 1.074-.472 2.124-.626 1.05-.154 2.809-.433 3.909-.621 3.434-.587 7.142-1.2 8.6-1.421.77-.117 2.435-.386 3.7-.599l4.7-.786c1.32-.22 3.435-.579 4.7-.798 2.49-.432 16.833-2.748 24.9-4.021 2.75-.434 6.035-.968 7.3-1.185 3.785-.651 6.815-1.155 8.3-1.381 1.308-.198 3.829-.613 8.6-1.415 1.1-.185 3.26-.537 4.8-.783 5.246-.836 10.533-1.7 14.8-2.417 1.1-.185 3.26-.545 4.8-.8s3.7-.615 4.8-.8c1.1-.185 3.17-.523 4.6-.751 1.43-.227 3.68-.595 5-.817 5.506-.926 7.34-1.225 9.976-1.627 1.526-.233 2.861-.509 2.966-.614.763-.763 4.771-.113 6.11.991m-93.401 1.648c1.196 2.571 1.082 3.072-.753 3.315-.934.124-2.868.42-4.298.658-1.43.238-3.5.531-4.6.651-1.1.121-2.171.383-2.38.583-.209.2-1.323.363-2.476.363s-2.208.18-2.344.4c-.136.22-.566.4-.956.4-.69 0-.875-.271-2.183-3.2l-.625-1.4 1.982-.121c1.09-.066 1.982-.266 1.982-.443s1.996-.448 4.437-.603c2.44-.154 4.881-.45 5.426-.657.544-.207 1.867-.376 2.939-.376 1.073 0 2.068-.19 2.211-.421.389-.629 1.129-.245 1.638.851m-30.351 4.253c.275.592.5 1.311.5 1.597 0 .286.18.52.4.52.22 0 .4.36.4.8 0 .622-.267.8-1.2.8-.66 0-1.2.18-1.2.4 0 .22-.979.4-2.176.4s-2.288.18-2.424.4c-.136.22-1.216.4-2.4.4s-2.264.18-2.4.4c-.136.22-1.317.4-2.624.4-1.317 0-2.376.178-2.376.4 0 .611-2.381.476-3.029-.171-.314-.315-.571-1.024-.571-1.577 0-.553-.18-1.116-.4-1.252-1.133-.7-.333-1.4 1.6-1.4 1.1 0 2-.18 2-.4 0-.222 1.067-.4 2.4-.4s2.4-.178 2.4-.4c0-.226 1.133-.4 2.6-.4s2.6-.174 2.6-.4c0-.222 1.067-.4 2.4-.4s2.4-.178 2.4-.4c0-.763.602-.389 1.1.683m-20.1 90.666c27.419 5.362 23.9 45.449-4 45.571-20.718.091-30.967-24.826-16.173-39.32 5.515-5.403 12.865-7.681 20.173-6.251m133.874.054c18.341 3.781 24.89 26.642 11.28 39.379-13.385 12.526-34.882 5.439-38.528-12.702-3.118-15.513 11.583-29.906 27.248-26.677M167.2 345.148c-10.469 2.281-14.168 15.864-6.296 23.121 11.355 10.467 28.444-3.012 21.017-16.577-2.655-4.848-9.183-7.75-14.721-6.544m133.585-.001c-10.312 2.183-14.245 15.259-6.837 22.725 7.303 7.361 19.628 4.244 22.654-5.729 2.88-9.492-6.033-19.068-15.817-16.996m-128.093 8.039c3.965 1.8 4.532 7.434 1.001 9.948-4.961 3.532-11.505-1.65-8.848-7.007 1.647-3.323 4.582-4.423 7.847-2.941m134.073.321c3.884 2.876 3.593 8.08-.565 10.093-5.265 2.549-10.577-2.974-7.731-8.038 1.662-2.956 5.721-3.961 8.296-2.055"/>
    <path fill="#dae6f1" d="M313.099 238.635c-.13.129-1.465.413-2.967.632-1.503.218-3.722.56-4.932.76-1.21.199-3.37.547-4.8.773-1.43.226-3.59.574-4.8.773-4.095.676-7.791 1.289-9.8 1.627-1.1.185-3.17.517-4.6.737-1.43.221-3.23.513-4 .651-4.496.8-15.545 2.602-28.4 4.631-2.75.434-6.035.968-7.3 1.185-1.265.218-3.335.568-4.6.778-1.265.209-2.93.493-3.7.63-.77.138-2.57.43-4 .651-1.43.22-3.5.552-4.6.737-1.1.185-3.26.545-4.8.8s-3.7.615-4.8.8c-1.1.185-3.215.531-4.7.768l-5.4.864c-1.485.237-3.6.583-4.7.768-1.1.185-3.26.545-4.8.8s-3.7.615-4.8.799c-1.1.184-2.81.458-3.8.608-10.831 1.638-25.159 10.965-31.941 20.793-.911 1.32-4.132 5.977-7.158 10.348a7344.79 7344.79 0 0 0-8.563 12.4c-1.683 2.449-3.217 4.632-3.406 4.852-6.356 7.366-5.657 15.479 1.601 18.575l1.933.825h199.801l1.517-1.311c2.555-2.209 2.407-6.031-.313-8.05l-1.13-.839-95.608-.2-95.609-.2-.96-1.2c-1.455-1.818-.933-5.495.993-7 .14-.11 1.345-1.82 2.677-3.8 12.463-18.524 14.385-21.163 17.625-24.2 2.895-2.713 5.555-4.8 6.118-4.8.232 0 .423-.159.423-.353 0-.195.315-.457.7-.583.385-.126 1.42-.657 2.3-1.181 5.135-3.057 8.519-3.838 34.3-7.919 2.162-.342 3.434-.552 9.6-1.582a822.59 822.59 0 0 1 5.1-.831c1.43-.228 3.5-.566 4.6-.751 1.1-.185 3.17-.523 4.6-.751 1.43-.227 3.77-.618 5.2-.869 2.766-.483 5.39-.915 9.6-1.58 1.43-.226 3.59-.574 4.8-.773 4.095-.676 7.791-1.289 9.8-1.627 1.1-.185 3.17-.523 4.6-.751 1.43-.227 3.68-.595 5-.817 1.32-.222 3.48-.578 4.8-.79 1.32-.213 2.94-.487 3.6-.609.66-.122 3.45-.577 6.2-1.012 27.139-4.293 26.978-4.261 28.415-5.698 2.196-2.195 2.045-5.556-.337-7.519-1.372-1.131-3.886-1.663-4.579-.969M375.293 252c0 .77.082 1.085.183.7.1-.385.1-1.015 0-1.4-.101-.385-.183-.07-.183.7"/>
    <path fill="#29589f" d="M255.309 61.812c.17.186-.453 1.115-1.383 2.064-.931.948-1.603 1.724-1.493 1.724.704 0 3.583-3.54 3.104-3.817-.295-.171-.398-.158-.228.029M52.9 68.676c.385.1 1.015.1 1.4 0 .385-.101.07-.183-.7-.183s-1.085.082-.7.183M7.701 71c.004.88.086 1.193.182.695.096-.497.092-1.217-.008-1.6-.1-.382-.179.025-.174.905m58.008 4.2c0 .99.078 1.395.173.9a5.661 5.661 0 0 0 0-1.8c-.095-.495-.173-.09-.173.9m98.429 1.017c-.13.34-.125.73.013.867.137.137.249-.037.249-.388 0-.351.315-.72.7-.82.656-.172.655-.186-.013-.23-.391-.025-.819.232-.949.571M16.3 77.482a5.661 5.661 0 0 0 1.8 0c.495-.095.09-.173-.9-.173s-1.395.078-.9.173m9.205.801c.497.096 1.217.092 1.6-.008.382-.1-.025-.179-.905-.174-.88.004-1.193.086-.695.182m8.995.793c.385.1 1.015.1 1.4 0 .385-.101.07-.183-.7-.183s-1.085.082-.7.183m8.8.8c.385.1 1.015.1 1.4 0 .385-.101.07-.183-.7-.183s-1.085.082-.7.183m98.824 3.524c.002 1.32.077 1.812.166 1.093.089-.719.087-1.799-.004-2.4s-.164-.013-.162 1.307m102.016 5.8c0 1.87.069 2.635.153 1.7.084-.935.084-2.465 0-3.4s-.153-.17-.153 1.7m7.597-.2c.002 1.76.072 2.43.156 1.489.085-.94.084-2.38-.002-3.2-.086-.819-.155-.049-.154 1.711m-109.244-.2c0 .77.082 1.085.183.7.1-.385.1-1.015 0-1.4-.101-.385-.183-.07-.183.7m176.857 4.587c-.124.323-.133.818-.019 1.1.113.282.22.121.237-.358.018-.479.347-.953.732-1.053.656-.172.655-.186-.013-.23-.391-.025-.813.218-.937.541M142.924 95.8c.002 1.32.077 1.812.166 1.093.089-.719.087-1.799-.004-2.4s-.164-.013-.162 1.307m101.444-.1c-.119.86-.058 1.35.144 1.148.193-.193.286-.867.207-1.499-.132-1.058-.16-1.03-.351.351m-101.075 5.5c0 .77.082 1.085.183.7.1-.385.1-1.015 0-1.4-.101-.385-.183-.07-.183.7m169.113.633c.003.422.189 1.037.412 1.367.297.438.334.276.138-.6-.329-1.471-.558-1.79-.55-.767M228.937 107c.002 1.76.072 2.43.156 1.489.085-.94.084-2.38-.002-3.2-.086-.819-.155-.049-.154 1.711m-85.213 1.6c.002 1.32.077 1.812.166 1.093.089-.719.087-1.799-.004-2.4s-.164-.013-.162 1.307m180.576.096c1.375.078 3.625.078 5 0s.25-.142-2.5-.142-3.875.064-2.5.142m-14.009.393c.71.088 1.97.09 2.8.003.83-.087.249-.159-1.291-.161-1.54-.002-2.219.069-1.509.158m-16.591.408c1.485.077 3.915.077 5.4 0 1.485-.077.27-.14-2.7-.14s-4.185.063-2.7.14m-13.4.392c.715.089 1.885.089 2.6 0 .715-.088.13-.161-1.3-.161-1.43 0-2.015.073-1.3.161m-17.4.408c1.485.077 3.915.077 5.4 0 1.485-.077.27-.14-2.7-.14s-4.185.063-2.7.14m-25.745.619c.175.175 1.922.263 3.881.198l3.564-.12-3.882-.197c-2.135-.108-3.738-.055-3.563.119m-24.638.981c1.494.077 3.834.077 5.2-.001 1.365-.078.143-.141-2.717-.141-2.86.001-3.978.065-2.483.142m-11.006.396c.94.085 2.38.084 3.2-.002.819-.086.049-.155-1.711-.154-1.76.002-2.43.072-1.489.156m-17.211.402c1.155.081 3.045.081 4.2 0 1.155-.081.21-.147-2.1-.147s-3.255.066-2.1.147m-10.8.398c.935.084 2.465.084 3.4 0s.17-.153-1.7-.153c-1.87 0-2.635.069-1.7.153m-19.2.402c1.155.081 3.045.081 4.2 0 1.155-.081.21-.147-2.1-.147s-3.255.066-2.1.147m-8.793.395c.719.089 1.799.087 2.4-.004s.013-.164-1.307-.162c-1.32.002-1.812.077-1.093.166m166.593 2.804a29.38 29.38 0 0 0 3.8 0c1.045-.082.19-.15-1.9-.15s-2.945.068-1.9.15m-23.4.795c.715.089 1.885.089 2.6 0 .715-.088.13-.161-1.3-.161-1.43 0-2.015.073-1.3.161m-8.2.402c.825.087 2.175.087 3 0 .825-.086.15-.157-1.5-.157s-2.325.071-1.5.157m-26.189.402c.94.085 2.38.084 3.2-.002.819-.086.049-.155-1.711-.154-1.76.002-2.43.072-1.489.156m-9.644.374c-.147.146-.264.461-.261.7.004.275.117.259.309-.043.166-.262 1.289-.543 2.494-.626l2.191-.15-2.233-.074c-1.229-.041-2.354.046-2.5.193m-18.36.423c.719.089 1.799.087 2.4-.004s.013-.164-1.307-.162c-1.32.002-1.812.077-1.093.166m-10.007.405c1.155.081 3.045.081 4.2 0 1.155-.081.21-.147-2.1-.147s-3.255.066-2.1.147m-20.8.398c.935.084 2.465.084 3.4 0s.17-.153-1.7-.153c-1.87 0-2.635.069-1.7.153m34.209 1.307c0 .99.078 1.395.173.9a5.661 5.661 0 0 0 0-1.8c-.095-.495-.173-.09-.173.9m-45.409-.905c1.155.081 3.045.081 4.2 0 1.155-.081.21-.147-2.1-.147s-3.255.066-2.1.147m-14.114.403c1.313.081 2.663.362 3 .625.538.418.546.39.065-.223-.43-.548-1.08-.684-3-.624l-2.451.075 2.386.147m-13.07.399c1.383.078 3.543.077 4.8-.002 1.256-.079.124-.143-2.516-.142-2.64 0-3.668.065-2.284.144m72.985 4.703c.004.88.086 1.193.182.695.096-.497.092-1.217-.008-1.6-.1-.382-.179.025-.174.905m8.06-.842c-.118.307-.153 1.252-.078 2.1.127 1.429.151 1.388.327-.558.194-2.144.131-2.533-.249-1.542m-92.8 6.8c-.118.307-.153 1.252-.078 2.1.127 1.429.151 1.388.327-.558.194-2.144.131-2.533-.249-1.542m85.153 1.642c.003 1.1.081 1.503.173.895.092-.609.09-1.509-.005-2-.095-.492-.171.005-.168 1.105m7.979.2c0 .77.082 1.085.183.7.1-.385.1-1.015 0-1.4-.101-.385-.183-.07-.183.7m-92.8 4c0 .77.082 1.085.183.7.1-.385.1-1.015 0-1.4-.101-.385-.183-.07-.183.7m85.208.2c.004.88.086 1.193.182.695.096-.497.092-1.217-.008-1.6-.1-.382-.179.025-.174.905m8.019 1.4c0 1.21.075 1.705.167 1.1a8.899 8.899 0 0 0 0-2.2c-.092-.605-.167-.11-.167 1.1m-92.806 6.2c.003 1.1.081 1.503.173.895.092-.609.09-1.509-.005-2-.095-.492-.171.005-.168 1.105m85.195.6c0 .99.078 1.395.173.9a5.661 5.661 0 0 0 0-1.8c-.095-.495-.173-.09-.173.9m7.984 0c0 .77.082 1.085.183.7.1-.385.1-1.015 0-1.4-.101-.385-.183-.07-.183.7m-92.792 3.8c.004.88.086 1.193.182.695.096-.497.092-1.217-.008-1.6-.1-.382-.179.025-.174.905m85.2.4c.004.88.086 1.193.182.695.096-.497.092-1.217-.008-1.6-.1-.382-.179.025-.174.905m8.023 1.6c.002 1.32.077 1.812.166 1.093.089-.719.087-1.799-.004-2.4s-.164-.013-.162 1.307m-92.815 6.2c0 .99.078 1.395.173.9a5.661 5.661 0 0 0 0-1.8c-.095-.495-.173-.09-.173.9m85.2 0c0 .99.078 1.395.173.9a5.661 5.661 0 0 0 0-1.8c-.095-.495-.173-.09-.173.9m7.984.4c0 .77.082 1.085.183.7.1-.385.1-1.015 0-1.4-.101-.385-.183-.07-.183.7m-92.792 3.8c.004.88.086 1.193.182.695.096-.497.092-1.217-.008-1.6-.1-.382-.179.025-.174.905m85.153-.451c-.048 1.024-.127 1.089-.724.6-.539-.442-.52-.318.1.638.845 1.303 1.253.592.852-1.487-.142-.739-.183-.694-.228.249m8.07 2.451c.002 1.32.077 1.812.166 1.093.089-.719.087-1.799-.004-2.4s-.164-.013-.162 1.307m-92.815 6.2c0 .99.078 1.395.173.9a5.661 5.661 0 0 0 0-1.8c-.095-.495-.173-.09-.173.9m.392 4.2c.004.88.086 1.193.182.695.096-.497.092-1.217-.008-1.6-.1-.382-.179.025-.174.905m93.223 2.4c.002 1.32.077 1.812.166 1.093.089-.719.087-1.799-.004-2.4s-.164-.013-.162 1.307m-92.815 5.8c0 .99.078 1.395.173.9a5.661 5.661 0 0 0 0-1.8c-.095-.495-.173-.09-.173.9m93.184 0c0 .77.082 1.085.183.7.1-.385.1-1.015 0-1.4-.101-.385-.183-.07-.183.7m-92.784 4c0 .99.078 1.395.173.9a5.661 5.661 0 0 0 0-1.8c-.095-.495-.173-.09-.173.9m85.592 7c.004.88.086 1.193.182.695.096-.497.092-1.217-.008-1.6-.1-.382-.179.025-.174.905m.408 4.2c0 .99.078 1.395.173.9a5.661 5.661 0 0 0 0-1.8c-.095-.495-.173-.09-.173.9m.392 7.8c.004.88.086 1.193.182.695.096-.497.092-1.217-.008-1.6-.1-.382-.179.025-.174.905m.408 4.2c0 .99.078 1.395.173.9a5.661 5.661 0 0 0 0-1.8c-.095-.495-.173-.09-.173.9m8.005 5.4c.003 1.1.081 1.503.173.895.092-.609.09-1.509-.005-2-.095-.492-.171.005-.168 1.105m-7.613 2.4c.004.88.086 1.193.182.695.096-.497.092-1.217-.008-1.6-.1-.382-.179.025-.174.905m-85.247.9c.034.929.121 1.157.228.6.178-.923.918-1.272.918-.433 0 .256.102.364.228.239.272-.273-.691-1.906-1.124-1.906-.167 0-.279.675-.25 1.5m93.239 1.3c0 .77.082 1.085.183.7.1-.385.1-1.015 0-1.4-.101-.385-.183-.07-.183.7m-7.579 1.8c.003 1.1.081 1.503.173.895.092-.609.09-1.509-.005-2-.095-.492-.171.005-.168 1.105m-85.213.8c.004.88.086 1.193.182.695.096-.497.092-1.217-.008-1.6-.1-.382-.179.025-.174.905m.4 7.6c.004.88.086 1.193.182.695.096-.497.092-1.217-.008-1.6-.1-.382-.179.025-.174.905m.408 4.2c0 .99.078 1.395.173.9a5.661 5.661 0 0 0 0-1.8c-.095-.495-.173-.09-.173.9m17.083 4.3c.272.561.77.883 1.322.854.803-.042.812-.066.096-.247-.435-.11-1.029-.494-1.322-.854-.459-.563-.472-.529-.096.247m142.008-.316c-.55.167.455.216 2.234.108l3.234-.197 1.466 1.466c.806.806 1.466 1.293 1.466 1.081 0-1.971-5.098-3.463-8.4-2.458m-4.8.829c-.646.216-.22.253 1.2.106 1.21-.125 2.275-.293 2.367-.373.32-.281-2.576-.063-3.567.267m-4.8.8c-.646.216-.22.253 1.2.106 1.21-.125 2.275-.293 2.367-.373.32-.281-2.576-.063-3.567.267m-4.8.807c-.674.229-.349.264 1 .108 1.1-.127 2.075-.297 2.167-.379.315-.281-2.168-.069-3.167.271m-140.5.662a5.661 5.661 0 0 0 1.8 0c.495-.095.09-.173-.9-.173s-1.395.078-.9.173m135.5.138c-.539.245-.146.285 1.2.121 1.1-.134 2.075-.31 2.167-.392.35-.313-2.606-.075-3.367.271m27.894 1.78c-.003 1.641.068 1.845.396 1.136.265-.573.267-1.248.004-2-.36-1.034-.396-.956-.4.864M287 242.42c-.539.245-.146.285 1.2.121 1.1-.134 2.075-.31 2.167-.392.35-.313-2.606-.075-3.367.271m-4.8.78-.8.344.8-.019c.44-.011 1.34-.157 2-.325l1.2-.305-1.2-.02c-.66-.01-1.56.136-2 .325m-4.8.81c-.534.237-.202.276 1 .117.99-.131 1.875-.303 1.967-.383.347-.301-2.203-.072-2.967.266m-4.8.809c-.558.252-.315.288.8.119.88-.134 1.675-.31 1.767-.391.343-.303-1.799-.076-2.567.272m-5 .781c-1.344.431.108.431 1.8 0 1.078-.274 1.098-.306.2-.313-.55-.004-1.45.137-2 .313m-5 .8-.8.344.8-.019c.44-.011 1.34-.157 2-.325l1.2-.305-1.2-.02c-.66-.01-1.56.136-2 .325m55.694.769c-.607.643-1.687 1.3-2.399 1.46-.712.16-1.078.366-.813.458.765.266 3.21-1.063 3.904-2.121.833-1.273.65-1.219-.692.203m-60.494.031-.8.344.8-.012c.44-.006 1.25-.156 1.8-.332l1-.32-1-.012c-.55-.006-1.36.143-1.8.332m-4.8.8-.8.344.8-.012c.44-.006 1.25-.156 1.8-.332l1-.32-1-.012c-.55-.006-1.36.143-1.8.332m-5 .8-1 .32h1c.55 0 1.45-.144 2-.32l1-.32h-1c-.55 0-1.45.144-2 .32m-4.8.8-1 .32h1c.55 0 1.45-.144 2-.32l1-.32h-1c-.55 0-1.45.144-2 .32m67.8 0c-1.07.272-1.092.305-.2.305.55 0 1.54-.137 2.2-.305 1.07-.272 1.092-.305.2-.305-.55 0-1.54.137-2.2.305m-72.8.8c-1.07.272-1.092.305-.2.305.55 0 1.54-.137 2.2-.305 1.07-.272 1.092-.305.2-.305-.55 0-1.54.137-2.2.305m67.8 0-1 .32h1c.55 0 1.45-.144 2-.32l1-.32h-1c-.55 0-1.45.144-2 .32m-72.8.8c-1.357.286-1.363.295-.2.307.66.008 1.65-.131 2.2-.307 1.312-.42-.004-.42-2 0m68 0-1 .32h1c.55 0 1.45-.144 2-.32l1-.32h-1c-.55 0-1.45.144-2 .32m-72.8.8c-1.357.286-1.363.295-.2.307.66.008 1.65-.131 2.2-.307 1.312-.42-.004-.42-2 0m68 0-1 .32 1 .012c.55.006 1.36-.143 1.8-.332l.8-.344-.8.012c-.44.006-1.25.156-1.8.332m-73 .8-1.6.286 1.4.017c.77.01 1.85-.127 2.4-.303 1.285-.412.099-.412-2.2 0m68.2 0-1 .32 1 .012c.55.006 1.36-.143 1.8-.332l.8-.344-.8.012c-.44.006-1.25.156-1.8.332m-73 .8-1.6.286 1.4.017c.77.01 1.85-.127 2.4-.303 1.285-.412.099-.412-2.2 0m68 0c-1.078.274-1.098.306-.2.313.55.004 1.45-.137 2-.313 1.344-.431-.108-.431-1.8 0m-4.8.8c-1.078.274-1.098.306-.2.313.55.004 1.45-.137 2-.313 1.344-.431-.108-.431-1.8 0m-70.6.413c-.646.216-.22.253 1.2.106 1.21-.125 2.275-.293 2.367-.373.32-.281-2.576-.063-3.567.267m65.8.387c-1.089.277-1.107.307-.2.325.55.01 1.36-.136 1.8-.325.986-.424.066-.424-1.6 0m-70.6.413c-.646.216-.22.253 1.2.106 1.21-.125 2.275-.293 2.367-.373.32-.281-2.576-.063-3.567.267M272 256c-1.367.288-1.372.295-.2.319.66.014 1.56-.13 2-.319.962-.413.164-.413-1.8 0m-70.4.413c-.646.216-.22.253 1.2.106 1.21-.125 2.275-.293 2.367-.373.32-.281-2.576-.063-3.567.267m65.6.387c-1.367.288-1.372.295-.2.319.66.014 1.56-.13 2-.319.962-.413.164-.413-1.8 0m-70.6.403c-.515.223-.087.264 1.2.115 1.1-.127 2.075-.295 2.167-.374.347-.299-2.603-.072-3.367.259m65.6.397-1.2.305 1.2.02c.66.01 1.56-.136 2-.325l.8-.344-.8.019c-.44.011-1.34.157-2 .325m-70.4.42c-.539.245-.146.285 1.2.121 1.1-.134 2.075-.31 2.167-.392.35-.313-2.606-.075-3.367.271m65.6.38-1.6.286 1.4.029c.77.016 1.76-.126 2.2-.315.943-.405.262-.405-2 0m-70.4.403c-.515.223-.087.264 1.2.115 1.1-.127 2.075-.295 2.167-.374.347-.299-2.603-.072-3.367.259m65.4.397-1.4.295 1.4.024c.77.014 1.76-.13 2.2-.319l.8-.344-.8.025c-.44.013-1.43.157-2.2.319m-69 .4c-.292.473.099.473 1.2 0 .771-.331.769-.345-.076-.372-.482-.015-.988.152-1.124.372m64 .4-1.6.286 1.4.017c.77.01 1.85-.127 2.4-.303 1.285-.412.099-.412-2.2 0m-66.8.4c-.292.473.099.473 1.2 0 .771-.331.769-.345-.076-.372-.482-.015-.988.152-1.124.372m62 .4-1.6.286 1.4.017c.77.01 1.85-.127 2.4-.303 1.285-.412.099-.412-2.2 0m-5.495 1.083c.497.096 1.217.092 1.6-.008.382-.1-.025-.179-.905-.174-.88.004-1.193.086-.695.182m-6.705.93c-.646.216-.22.253 1.2.106 1.21-.125 2.275-.293 2.367-.373.32-.281-2.576-.063-3.567.267m-4.8.8c-.646.216-.22.253 1.2.106 1.21-.125 2.275-.293 2.367-.373.32-.281-2.576-.063-3.567.267m-4.8.807c-.674.229-.349.264 1 .108 1.1-.127 2.075-.297 2.167-.379.315-.281-2.168-.069-3.167.271m-50.9 1.009c-1.495.811-1.404 1.149.1.371.66-.341 1.2-.706 1.2-.81 0-.258-.043-.243-1.3.439m46.1-.209c-.674.229-.349.264 1 .108 1.1-.127 2.075-.297 2.167-.379.315-.281-2.168-.069-3.167.271m-5.2.78-1 .32 1-.007c.55-.004 1.54-.145 2.2-.313l1.2-.305-1.2-.008c-.66-.004-1.65.137-2.2.313m-4.8.8-1 .32h1c.55 0 1.45-.144 2-.32l1-.32h-1c-.55 0-1.45.144-2 .32m-40.4 1.635-1.4 1.213 1.495-.924c.822-.508 1.497-1.059 1.5-1.224.007-.436-.057-.398-1.595.935m35.8-.835c-1.078.274-1.098.306-.2.313.55.004 1.45-.137 2-.313 1.344-.431-.108-.431-1.8 0m-5 .8-1 .32 1 .012c.55.006 1.36-.143 1.8-.332l.8-.344-.8.012c-.44.006-1.25.156-1.8.332m-4.8.8c-.792.254-.833.32-.2.32.44 0 1.25-.144 1.8-.32.792-.254.833-.32.2-.32-.44 0-1.25.144-1.8.32m-4 .8c-.804.257-.843.323-.2.332.44.006 1.16-.143 1.6-.332 1.019-.438-.032-.438-1.4 0m-27.21 3.1-2.99 3.1 3.189-3c1.753-1.65 3.268-3.045 3.366-3.1.098-.055.009-.1-.198-.1-.208 0-1.723 1.395-3.367 3.1m16.21 1.3c-.66.437-1.02.792-.8.788.401-.006 2.576-1.565 2.2-1.576-.11-.004-.74.351-1.4.788m-20.419 3.153c-1.682 2.151-3.843 5.247-3.662 5.247.247 0 4.752-6.068 4.599-6.196-.065-.054-.486.373-.937.949m13.032 2.317c-1.586 1.469-3.913 4.034-5.17 5.7-3.197 4.238-9.413 13.382-8.868 13.045.249-.153 1.916-2.47 3.705-5.147 5.656-8.462 8.444-11.811 12.651-15.197.732-.589 1.158-1.071.948-1.071-.21 0-1.68 1.202-3.266 2.67m-18.061 4.63a906.07 906.07 0 0 1-2.72 3.881c-1 1.42-1.592 2.441-1.315 2.271.536-.332 5.429-7.452 5.121-7.452-.101 0-.589.585-1.086 1.3m-13.278 19.189c-1.939 2.854-3.365 5.091-3.169 4.969.488-.301 7.012-9.878 6.836-10.034-.078-.068-1.727 2.211-3.667 5.065m10.439 4.611c-.606.695-1.833 2.893-1.39 2.49.36-.328 2.268-3.19 2.127-3.19-.069 0-.401.315-.737.7m-2.295 4.341c-.025 1.169 1.647 3.53 2.596 3.667.575.083.491-.054-.314-.51-.605-.343-1.103-.663-1.106-.711-.053-.763-1.163-3.072-1.176-2.446m-15.283 3.659c-.085.605-.037 1.64.108 2.3.2.917.273.658.31-1.1.05-2.436-.158-3.035-.418-1.2m210.499 1.947c.531.686 1.046 1.176 1.145 1.088.098-.088-.336-.649-.966-1.247L340.269 317l.965 1.247M342.6 322c0 1.058.132 1.716.294 1.462.162-.254.294-.912.294-1.462 0-.55-.132-1.208-.294-1.462-.162-.254-.294.404-.294 1.462m-208.841 2.706c1.453 1.581 4.227 2.91 5.937 2.844 1.246-.048 1.233-.062-.296-.325-1.863-.319-3.562-1.157-5.452-2.688l-1.348-1.092 1.159 1.261m207.132 1.168c-.721.701-1.801 1.349-2.4 1.44l-1.091.166 1.033.06c.953.055 4.485-2.438 3.967-2.8-.11-.077-.789.433-1.509 1.134M165.6 335.789c-12.318 2.839-20.167 14-18.223 25.911 4.592 28.126 45.617 25.158 45.617-3.3 0-14.735-13.438-25.827-27.394-22.611m133.2.05c-15.923 3.425-23.415 21.889-14.361 35.391 9.373 13.977 30.34 13.5 38.872-.883 10.268-17.311-4.937-38.717-24.511-34.508m-122.575 10.543c12.593 6.2 8.026 25.618-6.025 25.618-8.332 0-15.012-7.933-13.388-15.9 1.856-9.107 11.176-13.772 19.413-9.718m133.239-.098c7.19 3.521 9.858 12.447 5.72 19.141-7.199 11.649-24.984 6.648-24.984-7.025 0-10.034 10.294-16.508 19.264-12.116M167.4 353.307c-2.368 1.322-3.691 4.134-3.018 6.42 2.008 6.826 11.623 5.662 11.617-1.407-.004-4.443-4.709-7.186-8.599-5.013m133.569-.121c-4.372 2.222-4.354 8.291.031 10.414 2.961 1.433 6.143.464 7.726-2.354 2.814-5.006-2.632-10.664-7.757-8.06m-127.755.824c2.866 2.041 3.113 5.954.527 8.337-4.067 3.748-10.3-.417-8.552-5.715 1.034-3.133 5.334-4.538 8.025-2.622m133.183-.148c1.926 1.138 3.576 5.213 2.403 5.938-.22.136-.4.515-.4.842 0 3.744-7.44 4.05-9.412.387-2.51-4.659 2.861-9.854 7.409-7.167"/>
    <path fill="#5290db" d="M311 238.8c-1.089.277-1.107.307-.2.325.55.01 1.36-.136 1.8-.325.986-.424.066-.424-1.6 0m-4.8.8c-1.089.277-1.107.307-.2.325.55.01 1.36-.136 1.8-.325.986-.424.066-.424-1.6 0m79.642.468c.113.182.006.332-.237.332-1.327 0-2.405 1.964-2.405 4.382v2.418h-2.206c-3.877 0-5.439 1.496-5.547 5.312-.096 3.395 1.751 4.991 5.853 5.057l1.9.031v2.418c0 2.401 1.077 4.382 2.382 4.382.23 0 .418.18.418.4 0 .769 3.398.447 4.317-.408.477-.445 1.006-.791 1.175-.769.17.021.415-.2.546-.492.131-.292.446-.934.7-1.426.254-.492.462-1.617.462-2.5 0-1.648.782-2.006 3.545-1.625.299.042.974-.328 1.5-.822.525-.494.958-.731.961-.528.003.204.181.1.394-.23.727-1.125.493-6.706-.3-7.168-.385-.224-.52-.414-.3-.422 1.411-.052-2.27-1.21-3.846-1.21H393.2v-1.925c0-1.302-.233-2.175-.722-2.7-.739-.793-.878-1.073-.878-1.775 0-.22-.36-.4-.8-.4-.44 0-.8-.189-.8-.421 0-.253-.867-.385-2.182-.332-1.2.049-2.089.238-1.976.421m-84.642.332c-1.367.288-1.372.295-.2.319.66.014 1.56-.13 2-.319.962-.413.164-.413-1.8 0m-15.5 2.676c.385.1 1.015.1 1.4 0 .385-.101.07-.183-.7-.183s-1.085.082-.7.183m-4.8.8c.385.1 1.015.1 1.4 0 .385-.101.07-.183-.7-.183s-1.085.082-.7.183m-5.2.8c.385.1 1.015.1 1.4 0 .385-.101.07-.183-.7-.183s-1.085.082-.7.183m-4.8.8c.385.1 1.015.1 1.4 0 .385-.101.07-.183-.7-.183s-1.085.082-.7.183m-10 1.6c.385.1 1.015.1 1.4 0 .385-.101.07-.183-.7-.183s-1.085.082-.7.183m-25.7 4.124c-.792.254-.833.32-.2.32.44 0 1.25-.144 1.8-.32.792-.254.833-.32.2-.32-.44 0-1.25.144-1.8.32m-4.8.8c-.792.254-.833.32-.2.32.44 0 1.25-.144 1.8-.32.792-.254.833-.32.2-.32-.44 0-1.25.144-1.8.32m-4.8.8c-.804.257-.843.323-.2.332.44.006 1.16-.143 1.6-.332 1.019-.438-.032-.438-1.4 0m63.3.276c.385.1 1.015.1 1.4 0 .385-.101.07-.183-.7-.183s-1.085.082-.7.183m-68.1.524c-.804.257-.843.323-.2.332.44.006 1.16-.143 1.6-.332 1.019-.438-.032-.438-1.4 0m62.9.276c.385.1 1.015.1 1.4 0 .385-.101.07-.183-.7-.183s-1.085.082-.7.183m-67.9.524c-1.089.277-1.107.307-.2.325.55.01 1.36-.136 1.8-.325.986-.424.066-.424-1.6 0m63.1.276c.385.1 1.015.1 1.4 0 .385-.101.07-.183-.7-.183s-1.085.082-.7.183m-67.9.524c-1.089.277-1.107.307-.2.325.55.01 1.36-.136 1.8-.325.986-.424.066-.424-1.6 0m63.1.276c.385.1 1.015.1 1.4 0 .385-.101.07-.183-.7-.183s-1.085.082-.7.183m-6.3.934c-.534.237-.202.276 1 .117.99-.131 1.875-.303 1.967-.383.347-.301-2.203-.072-2.967.266m-3.7.666c.385.1 1.015.1 1.4 0 .385-.101.07-.183-.7-.183s-1.085.082-.7.183m-67.9.524c-1.089.277-1.107.307-.2.325.55.01 1.36-.136 1.8-.325.986-.424.066-.424-1.6 0m62 .41c-.534.237-.202.276 1 .117.99-.131 1.875-.303 1.967-.383.347-.301-2.203-.072-2.967.266m-71.8 1.19c-1.367.288-1.372.295-.2.319.66.014 1.56-.13 2-.319.962-.413.164-.413-1.8 0m61.8.41c-.534.237-.202.276 1 .117.99-.131 1.875-.303 1.967-.383.347-.301-2.203-.072-2.967.266m-4.8.809c-.558.252-.315.288.8.119.88-.134 1.675-.31 1.767-.391.343-.303-1.799-.076-2.567.272m-4.6.781c-.792.254-.833.32-.2.32.44 0 1.25-.144 1.8-.32.792-.254.833-.32.2-.32-.44 0-1.25.144-1.8.32m-62 1c-1.306.747-.849.755.854.016.74-.322 1.076-.585.746-.586-.33-.001-1.05.256-1.6.57m57-.181c-.558.252-.315.288.8.119.88-.134 1.675-.31 1.767-.391.343-.303-1.799-.076-2.567.272m-4.8.781c-1.019.438.032.438 1.4 0 .804-.257.843-.323.2-.332-.44-.006-1.16.143-1.6.332m-5 .8c-.792.254-.833.32-.2.32.44 0 1.25-.144 1.8-.32.792-.254.833-.32.2-.32-.44 0-1.25.144-1.8.32m-4.8.8c-.792.254-.833.32-.2.32.44 0 1.25-.144 1.8-.32.792-.254.833-.32.2-.32-.44 0-1.25.144-1.8.32m-4.8.8c-.792.254-.833.32-.2.32.44 0 1.25-.144 1.8-.32.792-.254.833-.32.2-.32-.44 0-1.25.144-1.8.32m-46.2 1.6c-.66.437-1.02.792-.8.788.401-.006 2.576-1.565 2.2-1.576-.11-.004-.74.351-1.4.788m21.6 2.4c-1.078.274-1.098.306-.2.313.55.004 1.45-.137 2-.313 1.344-.431-.108-.431-1.8 0m-29.609 4.5L157 277l3.3-3.191c3.065-2.963 3.482-3.409 3.191-3.409-.061 0-1.546 1.485-3.3 3.3m7.174 7.6c-1.942 2.013-4.629 5.195-3.124 3.7 1.68-1.669 5.855-6.2 5.713-6.2-.097 0-1.263 1.125-2.589 2.5m-13.99.568c-.616.808-.916 1.343-.666 1.188.512-.316 2.244-2.656 1.966-2.656-.099 0-.684.661-1.3 1.468m9.769 4.432c-1.151 1.389-1.638 2.1-1.44 2.1.11 0 .682-.63 1.269-1.4 1.09-1.429 1.222-1.968.171-.7m-15.621 4c-.705.821-1.233 1.7-1.022 1.7.082 0 .548-.54 1.036-1.2.964-1.304.955-1.628-.014-.5m-3.687 5.317c-1.219 1.77-2.038 3.108-1.82 2.973.469-.29 4.494-6.19 4.222-6.19-.102 0-1.183 1.448-2.402 3.217m2.745 14.82c-.352.681-.569 1.308-.482 1.395.087.087.457-.47.823-1.237.822-1.725.537-1.857-.341-.158m-13.967 1.398c-.373.569-.609 1.103-.525 1.187.084.085.469-.381.855-1.034.862-1.46.604-1.579-.33-.153m63.518 4.865c26.143.057 68.803.057 94.8 0s4.608-.103-47.532-.103c-52.14 0-73.411.046-47.268.103m143.501.6c.092.055.707.55 1.367 1.1l1.2 1-.97-1.1c-.533-.605-1.148-1.1-1.366-1.1-.219 0-.322.045-.231.1m2.86 4.7c0 .77.082 1.085.183.7.1-.385.1-1.015 0-1.4-.101-.385-.183-.07-.183.7M189.9 327.5c27.115.057 71.485.057 98.6 0 27.115-.057 4.93-.103-49.3-.103s-76.415.046-49.3.103m-22.971 26.711c-3.384 2.667-2.346 7.997 1.825 9.374 4.253 1.403 8.258-3.432 6.222-7.514-1.468-2.942-5.494-3.873-8.047-1.86m133.226.303c-4.004 3.669-.445 10.658 4.651 9.132 1.812-.543 3.594-2.033 3.594-3.004 0-.327.18-.706.4-.842 1.173-.725-.477-4.8-2.403-5.938-1.946-1.15-4.576-.875-6.242.652"/>
  </g>
</svg>